<svg width="167" height="34" viewBox="0 0 167 34" fill="none" xmlns="http://www.w3.org/2000/svg">
<path d="M16.5 4.53908L15.6712 5.33492C15.7785 5.44602 15.9073 5.53438 16.0497 5.59474C16.1921 5.65509 16.3453 5.6862 16.5 5.6862C16.6547 5.6862 16.8079 5.65509 16.9503 5.59474C17.0927 5.53438 17.2215 5.44602 17.3288 5.33492L16.5 4.53908ZM2.30233 10.1054C2.30233 6.81489 4.16721 4.05392 6.71358 2.89229C9.18781 1.76434 12.5124 2.06278 15.6712 5.33492L17.3288 3.74477C13.5837 -0.138039 9.23079 -0.779306 5.75581 0.804731C2.35758 2.3551 0 5.95477 0 10.1054H2.30233ZM33 10.1054C33 5.95477 30.644 2.3551 27.2442 0.804731C23.7692 -0.779306 19.4193 -0.138038 15.6712 3.74324L17.3288 5.33492C20.4876 2.06431 23.8122 1.76434 26.2864 2.89229C28.8328 4.05392 30.6977 6.81336 30.6977 10.1054H33Z" fill="url(#paint0_linear_717_753)"/>
<path d="M3.94005 19.8071C5.79747 21.8923 8.08797 23.6267 10.0748 25.1533L12.337 23.9965C10.0686 22.2251 7.61784 20.4791 5.66065 18.2827C3.68372 16.0605 2.30233 13.4694 2.30233 10.1054H0C0 14.1856 1.70372 17.2986 3.94005 19.8071Z" fill="url(#paint1_linear_717_753)"/>
<path d="M20.4508 24.1628L23.4926 24.717C25.3386 23.2974 27.377 21.6975 29.06 19.8071C31.2963 17.2971 33 14.1856 33 10.1054H30.6977C30.6977 13.4694 29.3163 16.0605 27.3393 18.2827C25.321 20.5478 22.7777 22.3339 20.4508 24.1628Z" fill="url(#paint2_linear_717_753)"/>
<path d="M20.9632 13.8303C20.9632 12.1928 19.9752 10.4111 18.7227 8.85322C18.0325 8.00542 17.2784 7.21188 16.467 6.47954C15.6556 7.21189 14.9013 8.00528 14.2112 8.85309C12.9587 10.4109 11.9708 12.1927 11.9707 13.8303C11.9707 15.0221 12.4445 16.1651 13.2877 17.0078C14.1309 17.8505 15.2745 18.3241 16.467 18.3241C17.6595 18.3241 18.8032 17.8505 19.6463 17.0078C20.4895 16.1651 20.9632 15.0221 20.9632 13.8303ZM23.232 13.8303C23.232 15.6237 22.5192 17.3436 21.2505 18.6116C19.9818 19.8796 18.2611 20.592 16.467 20.592C14.6729 20.592 12.9522 19.8796 11.6835 18.6116C10.4148 17.3436 9.702 15.6237 9.702 13.8303C9.70201 11.3871 11.1124 9.08777 12.4425 7.43383L12.443 7.43325L12.4438 7.43228L12.4447 7.43112C13.405 6.24763 14.4798 5.16112 15.652 4.18713L15.6551 4.18455L15.6564 4.18352C15.885 3.99632 16.1714 3.894 16.467 3.894C16.7458 3.894 17.0164 3.98503 17.2381 4.15246L17.2595 4.16889L17.2602 4.16954L17.261 4.17012L17.2798 4.18533L17.2808 4.18623L17.2819 4.18713L17.3882 4.27595C18.4477 5.16696 19.4258 6.15041 20.3108 7.21462L20.399 7.32129L20.3993 7.32168L20.4866 7.42854L20.4875 7.42957L20.4902 7.43299C21.8207 9.08631 23.232 11.3863 23.232 13.8303Z" fill="url(#paint3_linear_717_753)"/>
<path d="M20.9632 13.8303C20.9632 12.1928 19.9752 10.4111 18.7227 8.85322C18.0325 8.00542 17.2784 7.21188 16.467 6.47954C15.6556 7.21189 14.9013 8.00528 14.2112 8.85309C12.9587 10.4109 11.9708 12.1927 11.9707 13.8303C11.9707 15.0221 12.4445 16.1651 13.2877 17.0078C14.1309 17.8505 15.2745 18.3241 16.467 18.3241C17.6595 18.3241 18.8032 17.8505 19.6463 17.0078C20.4895 16.1651 20.9632 15.0221 20.9632 13.8303Z" fill="#9679CF"/>
<path d="M18.0979 9.9779C18.3072 9.83195 18.5952 9.88325 18.7411 10.0925C19.2281 10.7907 19.5556 11.3764 19.7773 12.0052C19.9985 12.6326 20.1059 13.2794 20.1799 14.087C20.2031 14.3411 20.016 14.566 19.762 14.5892C19.5079 14.6125 19.283 14.4254 19.2597 14.1713C19.1889 13.3976 19.0906 12.8366 18.9058 12.3124C18.7215 11.7895 18.4425 11.2796 17.9833 10.6211C17.8373 10.4119 17.8886 10.1239 18.0979 9.9779Z" fill="#F4EFFF"/>
<path d="M19.39 29.8341C19.2874 28.7987 18.9672 28.0005 18.3753 27.3168C17.8344 26.6918 17.1018 26.2142 16.3706 25.7393L15.1123 27.6765C15.9046 28.1911 16.3409 28.496 16.6287 28.8285C16.8623 29.0983 17.0302 29.4276 17.0925 30.0734L17.0933 30.0821L17.0943 30.0908C17.2034 31.0666 17.4038 31.9717 17.9661 32.7265C18.3428 33.232 18.8288 33.6007 19.3995 33.8956C19.8071 34.1063 20.2463 33.7363 20.1636 33.285L20.1572 33.2503C20.1209 33.0522 20.1985 32.8505 20.3582 32.7279C20.6945 32.4696 20.6057 31.9472 20.2462 31.7223C20.0352 31.5903 19.9077 31.4661 19.8186 31.3464C19.6338 31.0983 19.4872 30.7027 19.39 29.8341Z" fill="url(#paint4_linear_717_753)"/>
<path d="M13.6236 29.8341C13.7262 28.7987 14.0465 28.0005 14.6383 27.3168C15.1793 26.6918 15.9119 26.2142 16.6431 25.7393L17.9014 27.6765C17.1091 28.1911 16.6728 28.496 16.385 28.8285C16.1514 29.0983 15.9835 29.4276 15.9212 30.0734L15.9203 30.0821L15.9194 30.0908C15.8102 31.0666 15.6098 31.9717 15.0475 32.7265C14.6709 33.232 14.1849 33.6007 13.6142 33.8956C13.2066 34.1063 12.7674 33.7363 12.8501 33.285L12.8565 33.2503C12.8928 33.0522 12.8152 32.8505 12.6555 32.7279C12.3192 32.4696 12.408 31.9472 12.7675 31.7223C12.9785 31.5903 13.1059 31.4661 13.1951 31.3464C13.3799 31.0983 13.5265 30.7027 13.6236 29.8341Z" fill="url(#paint5_linear_717_753)"/>
<path d="M19.9361 22.9338C22.2383 21.8932 24.75 23.7097 24.75 26.3313V26.3328L24.7495 26.3912V26.3919L24.7495 26.3927C24.7109 28.9811 22.2201 30.7611 19.9361 29.7288L16.5043 28.1776L13.0638 29.7327C10.7616 30.7733 8.25 28.9568 8.25 26.3352C8.25002 23.7136 10.7616 21.8971 13.0638 22.9377L16.4956 24.4888L19.9361 22.9338ZM22.5541 26.3313C22.5541 25.3322 21.6147 24.7002 20.7997 25.0686L18.9375 25.9103C18.5752 26.074 18.5752 26.5885 18.9375 26.7522L20.7997 27.594C21.6147 27.9624 22.5541 27.3304 22.5541 26.3313ZM10.4459 26.3352C10.4459 27.3342 11.3852 27.9663 12.2003 27.5979L14.0624 26.7562C14.4247 26.5924 14.4247 26.078 14.0624 25.9142L12.2003 25.0725C11.3852 24.7041 10.4459 25.3361 10.4459 26.3352Z" fill="url(#paint6_linear_717_753)"/>
<path d="M84.5428 27.0116C83.5491 27.0116 82.673 26.7911 81.9147 26.3501C81.1563 25.9091 80.5614 25.2995 80.1299 24.5213C79.6985 23.7301 79.4827 22.8221 79.4827 21.7975C79.4827 20.7858 79.6985 19.8908 80.1299 19.1126C80.5614 18.3214 81.1563 17.7053 81.9147 17.2643C82.673 16.8233 83.5491 16.6028 84.5428 16.6028C85.5496 16.6028 86.4321 16.8233 87.1905 17.2643C87.9488 17.7053 88.5437 18.3214 88.9752 19.1126C89.4067 19.8908 89.6224 20.7858 89.6224 21.7975C89.6224 22.8221 89.4067 23.7301 88.9752 24.5213C88.5437 25.2995 87.9488 25.9091 87.1905 26.3501C86.4321 26.7911 85.5496 27.0116 84.5428 27.0116ZM84.5428 24.9882C85.1181 24.9882 85.6149 24.8585 86.0333 24.5991C86.4517 24.3397 86.7786 23.97 87.014 23.4901C87.2493 23.0102 87.367 22.4525 87.367 21.8169C87.367 21.1554 87.2493 20.5912 87.014 20.1243C86.7786 19.6444 86.4517 19.2747 86.0333 19.0153C85.6149 18.7559 85.1181 18.6262 84.5428 18.6262C83.9805 18.6262 83.4902 18.7559 83.0718 19.0153C82.6534 19.2747 82.3265 19.6444 82.0912 20.1243C81.8558 20.5912 81.7382 21.1489 81.7382 21.7975C81.7382 22.446 81.8558 23.0102 82.0912 23.4901C82.3265 23.97 82.6534 24.3397 83.0718 24.5991C83.4902 24.8585 83.9805 24.9882 84.5428 24.9882Z" fill="white"/>
<path d="M73.3593 27.0116C72.3394 27.0116 71.4438 26.7911 70.6724 26.3501C69.9009 25.9091 69.2995 25.2995 68.868 24.5213C68.4365 23.743 68.2208 22.8351 68.2208 21.7975C68.2208 20.7728 68.4365 19.8713 68.868 19.0931C69.2995 18.3019 69.9009 17.6923 70.6724 17.2643C71.4438 16.8233 72.3394 16.6028 73.3593 16.6028C74.1438 16.6028 74.8433 16.7325 75.4578 16.9919C76.0855 17.2513 76.615 17.6339 77.0465 18.1398C77.478 18.6456 77.8048 19.2682 78.0271 20.0075L76.1443 20.5328H75.9089C75.7259 19.9492 75.399 19.4887 74.9283 19.1515C74.4576 18.8013 73.9346 18.6262 73.3593 18.6262C72.7709 18.6262 72.261 18.7559 71.8295 19.0153C71.398 19.2747 71.0646 19.6444 70.8293 20.1243C70.5939 20.5912 70.4762 21.1489 70.4762 21.7975C70.4762 22.433 70.5939 22.9907 70.8293 23.4706C71.0646 23.9506 71.398 24.3267 71.8295 24.5991C72.261 24.8585 72.7709 24.9882 73.3593 24.9882C73.7777 24.9882 74.1569 24.9104 74.4968 24.7547C74.8499 24.5991 75.1571 24.3786 75.4186 24.0932C75.6801 23.8079 75.8763 23.4642 76.007 23.0621H76.2424L78.1252 23.5874C77.8898 24.3397 77.5499 24.9752 77.1053 25.494C76.6608 25.9999 76.1247 26.3825 75.4971 26.6419C74.8825 26.8884 74.17 27.0116 73.3593 27.0116ZM72.8886 31C72.7055 31 72.5094 30.9741 72.3002 30.9222C72.091 30.8703 71.8622 30.773 71.6138 30.6303L72.0649 29.3657L72.2414 29.3268C72.346 29.3917 72.444 29.4371 72.5356 29.463C72.6402 29.4889 72.7317 29.5019 72.8101 29.5019C72.9801 29.5019 73.1109 29.4565 73.2024 29.3657C73.2939 29.2879 73.3397 29.1841 73.3397 29.0544C73.3397 28.9507 73.2939 28.8469 73.2024 28.7431C73.1109 28.6523 72.9801 28.607 72.8101 28.607C72.614 28.607 72.4637 28.6588 72.3591 28.7626L71.6138 27.8287L72.5748 26.4668H74.3007L72.9867 28.2178L72.6925 27.3229C72.7578 27.3099 72.8232 27.2969 72.8886 27.284C72.954 27.284 73.0259 27.284 73.1043 27.284C73.6143 27.284 74.0392 27.4526 74.3792 27.7898C74.7322 28.127 74.9087 28.5421 74.9087 29.035C74.9087 29.6446 74.706 30.1245 74.3007 30.4747C73.9085 30.8249 73.4377 31 72.8886 31Z" fill="white"/>
<path d="M60.9497 27.0116C60.2698 27.0116 59.6618 26.8819 59.1258 26.6225C58.6027 26.3631 58.1909 25.9999 57.8902 25.5329C57.5894 25.066 57.4391 24.5342 57.4391 23.9376C57.4391 23.0167 57.7594 22.2838 58.4001 21.7391C59.0408 21.1814 59.9626 20.8571 61.1655 20.7663L65.0095 20.455V22.3033L61.4989 22.5951C60.8713 22.647 60.4202 22.7767 60.1456 22.9843C59.871 23.1918 59.7337 23.4706 59.7337 23.8208C59.7337 24.171 59.8906 24.4564 60.2044 24.6769C60.5182 24.8974 60.917 25.0076 61.4008 25.0076C61.9107 25.0076 62.3684 24.8844 62.7737 24.638C63.1921 24.3786 63.5255 24.0478 63.7739 23.6457C64.0224 23.2437 64.1466 22.8091 64.1466 22.3422V20.7274C64.1466 20.1048 63.9374 19.5925 63.519 19.1904C63.1006 18.7753 62.5514 18.5678 61.8715 18.5678C61.2962 18.5678 60.819 18.7105 60.4398 18.9958C60.0737 19.2682 59.8383 19.6119 59.7337 20.027H59.518L57.596 19.56C57.8313 18.6781 58.3216 17.9647 59.0669 17.4199C59.8253 16.8752 60.7667 16.6028 61.8911 16.6028C63.2902 16.6028 64.3819 17.0049 65.1664 17.809C65.9509 18.6002 66.3432 19.7222 66.3432 21.1749V26.7197H64.3427V23.8598L65.1468 23.9765C64.9899 24.5342 64.7088 25.0466 64.3035 25.5135C63.8982 25.9675 63.4078 26.3306 62.8325 26.603C62.2703 26.8754 61.6427 27.0116 60.9497 27.0116Z" fill="white"/>
<path d="M53.1748 26.7197C52.8501 26.7197 52.5399 26.6661 52.244 26.5588C51.9482 26.4515 51.6668 26.3085 51.3998 26.1296C51.1401 25.958 50.8875 25.7648 50.6422 25.5503C50.3969 25.3285 50.1624 25.1032 49.9387 24.8743C49.8305 25.1032 49.7006 25.3178 49.5491 25.5181C49.4048 25.7112 49.2352 25.8829 49.0404 26.0331C48.8456 26.1833 48.6291 26.3013 48.391 26.3871C48.1529 26.473 47.8932 26.5159 47.6118 26.5159C47.2438 26.5159 46.9155 26.4515 46.6269 26.3228C46.3455 26.2012 46.1074 26.0366 45.9125 25.8292C45.7177 25.6218 45.5662 25.3822 45.458 25.1104C45.357 24.8385 45.3064 24.5524 45.3064 24.252C45.3064 23.8944 45.375 23.5689 45.5121 23.2757C45.6492 22.9752 45.8332 22.7213 46.0641 22.5139C46.3022 22.2993 46.5727 22.1348 46.8758 22.0203C47.1788 21.8987 47.4963 21.8379 47.8282 21.8379C47.9509 21.8379 48.0699 21.8487 48.1854 21.8701C48.308 21.8844 48.4271 21.9095 48.5425 21.9452C48.4127 21.4731 48.2467 21.0154 48.0447 20.5719C47.8426 20.1213 47.6442 19.6635 47.4494 19.1985C47.2618 18.7336 47.0959 18.2436 46.9516 17.7286C46.8145 17.2136 46.7459 16.6486 46.7459 16.0334C46.7459 15.5613 46.8036 15.0928 46.9191 14.6279C47.0345 14.1629 47.1969 13.7195 47.4061 13.2975C47.6226 12.8683 47.8859 12.4713 48.1962 12.1065C48.5065 11.7417 48.8564 11.427 49.246 11.1623C49.6357 10.8905 50.0614 10.6795 50.5232 10.5293C50.9922 10.3791 51.49 10.304 52.0167 10.304C52.5146 10.304 52.9656 10.3791 53.3696 10.5293C53.7737 10.6795 54.12 10.887 54.4086 11.1516C54.7045 11.4091 54.9317 11.7203 55.0905 12.0851C55.2492 12.4427 55.3286 12.8361 55.3286 13.2653C55.3286 13.6944 55.2637 14.1057 55.1338 14.4991C55.0039 14.8925 54.8271 15.2609 54.6034 15.6042C54.3798 15.9476 54.12 16.2587 53.8242 16.5377C53.5284 16.8166 53.2145 17.0563 52.8826 17.2565C52.5507 17.4568 52.2116 17.6106 51.8652 17.7179C51.5189 17.8252 51.187 17.8788 50.8695 17.8788C50.718 17.8788 50.5737 17.8538 50.4366 17.8037C50.3067 17.7537 50.1876 17.6786 50.0794 17.5784C49.9784 17.4783 49.8954 17.3495 49.8305 17.1922C49.7728 17.0348 49.7439 16.8488 49.7439 16.6343C49.7439 16.4411 49.8016 16.3446 49.9171 16.3446C49.9531 16.3446 50 16.3696 50.0578 16.4197C50.1227 16.4697 50.2165 16.4948 50.3392 16.4948C50.7072 16.4948 51.0824 16.4054 51.4648 16.2265C51.8472 16.0477 52.1935 15.8188 52.5038 15.5399C52.8213 15.2538 53.0774 14.939 53.2722 14.5957C53.4742 14.2452 53.5753 13.9054 53.5753 13.5764C53.5753 13.3618 53.5428 13.1616 53.4779 12.9756C53.4129 12.7825 53.3119 12.6144 53.1748 12.4713C53.0449 12.3211 52.879 12.2066 52.6769 12.128C52.4749 12.0421 52.2332 11.9992 51.9518 11.9992C51.4395 11.9992 50.9741 12.1137 50.5556 12.3426C50.1371 12.5643 49.7764 12.8647 49.4733 13.2438C49.1703 13.6158 48.9358 14.0521 48.7698 14.5528C48.6039 15.0463 48.5209 15.5649 48.5209 16.1085C48.5209 16.4876 48.5642 16.8631 48.6508 17.2351C48.7374 17.5999 48.8456 17.9647 48.9755 18.3295C49.1053 18.6871 49.246 19.0519 49.3976 19.4239C49.5563 19.7887 49.7006 20.1678 49.8305 20.5612C49.9676 20.9474 50.083 21.348 50.1768 21.7628C50.2706 22.1705 50.3247 22.5997 50.3392 23.0503C50.5773 23.2792 50.8046 23.5081 51.021 23.737C51.2447 23.9659 51.4648 24.1769 51.6812 24.37C51.8977 24.556 52.1141 24.7098 52.3306 24.8314C52.5471 24.9458 52.7707 25.0031 53.0016 25.0031C53.3119 25.0031 53.568 24.9351 53.7701 24.7992C53.9721 24.6633 54.1345 24.4952 54.2571 24.2949C54.3798 24.0875 54.4664 23.8658 54.5169 23.6297C54.5674 23.3937 54.5926 23.1791 54.5926 22.986C54.5926 22.8858 54.5854 22.8071 54.571 22.7499C54.5566 22.6855 54.5493 22.6319 54.5493 22.589C54.5493 22.4817 54.6395 22.428 54.8199 22.428C55.2095 22.428 55.509 22.5282 55.7182 22.7285C55.9275 22.9216 56.0321 23.1541 56.0321 23.4259C56.0321 23.855 55.9635 24.2663 55.8265 24.6597C55.6894 25.0531 55.4945 25.4036 55.242 25.7112C54.9967 26.0188 54.6972 26.262 54.3437 26.4408C53.9901 26.6268 53.6005 26.7197 53.1748 26.7197ZM47.6767 23.3508C47.453 23.3508 47.2618 23.4259 47.1031 23.5761C46.9516 23.7263 46.8758 23.923 46.8758 24.1662C46.8758 24.3736 46.9407 24.5632 47.0706 24.7348C47.2077 24.8993 47.4025 24.9816 47.655 24.9816C47.8066 24.9816 47.9401 24.9494 48.0555 24.885C48.1782 24.8135 48.2828 24.7205 48.3694 24.6061C48.456 24.4916 48.5245 24.3629 48.575 24.2198C48.6327 24.0696 48.6724 23.9123 48.6941 23.7477C48.5281 23.6261 48.3622 23.5296 48.1962 23.4581C48.0302 23.3865 47.8571 23.3508 47.6767 23.3508Z" fill="white"/>
<path d="M46.8758 24.1662C46.8758 23.923 46.9516 23.7263 47.1031 23.5761C47.2618 23.4259 47.453 23.3508 47.6767 23.3508L47.744 23.3523C47.9002 23.3602 48.051 23.3955 48.1962 23.4581C48.3622 23.5296 48.5281 23.6261 48.6941 23.7477C48.6724 23.9123 48.6327 24.0696 48.575 24.2198L48.5337 24.3243C48.4891 24.4262 48.4343 24.5202 48.3694 24.6061L48.3362 24.6479C48.2565 24.7434 48.1629 24.8224 48.0555 24.885C47.9401 24.9494 47.8066 24.9816 47.655 24.9816L47.6551 24.6776C47.7605 24.6776 47.8401 24.6555 47.9032 24.6209C47.989 24.5703 48.0625 24.5055 48.1243 24.4237C48.191 24.3357 48.2452 24.2348 48.2859 24.1195L48.2871 24.1153L48.2886 24.1114C48.3164 24.0391 48.3388 23.9645 48.3569 23.8876C48.2608 23.8273 48.1667 23.7767 48.074 23.7368C47.9465 23.6818 47.8148 23.6549 47.6766 23.6549C47.531 23.6549 47.4166 23.7003 47.3166 23.7941C47.2329 23.8786 47.1823 23.993 47.1822 24.1661C47.1822 24.3028 47.2228 24.4268 47.3109 24.5458C47.3793 24.6253 47.4797 24.6776 47.6551 24.6776L47.655 24.9816L47.5632 24.9777C47.3548 24.9597 47.1906 24.8788 47.0706 24.7348C46.957 24.5847 46.893 24.4208 46.8788 24.2433L46.8758 24.1662ZM55.3286 13.2653C55.3286 12.8361 55.2492 12.4427 55.0905 12.0851C54.9317 11.7203 54.7045 11.4091 54.4086 11.1516C54.1561 10.9201 53.8594 10.7323 53.5186 10.5884L53.3696 10.5293C53.0161 10.3979 52.6266 10.324 52.2012 10.3076L52.0167 10.304C51.49 10.304 50.9922 10.3791 50.5232 10.5293C50.0614 10.6795 49.6357 10.8905 49.246 11.1623C48.8564 11.427 48.5065 11.7417 48.1962 12.1065L48.0821 12.2449C47.8209 12.5711 47.5955 12.922 47.4061 13.2975C47.1969 13.7195 47.0345 14.1629 46.9191 14.6279L46.8785 14.8025C46.7901 15.21 46.7459 15.6204 46.7459 16.0334C46.7459 16.6486 46.8145 17.2136 46.9516 17.7286C47.0959 18.2436 47.2618 18.7336 47.4494 19.1985C47.6442 19.6635 47.8426 20.1213 48.0447 20.5719C48.2467 21.0154 48.4127 21.4731 48.5425 21.9452C48.4271 21.9095 48.308 21.8844 48.1854 21.8701C48.0988 21.854 48.0102 21.8441 47.9196 21.8401L47.8282 21.8379C47.4963 21.8379 47.1788 21.8987 46.8758 22.0203C46.5727 22.1348 46.3022 22.2993 46.0641 22.5139L45.9798 22.5938C45.788 22.7855 45.6321 23.0128 45.5121 23.2757C45.375 23.5689 45.3064 23.8944 45.3064 24.252L45.3088 24.3641C45.3199 24.6238 45.3696 24.8725 45.458 25.1104C45.5662 25.3822 45.7177 25.6218 45.9125 25.8292C46.1074 26.0366 46.3455 26.2012 46.6269 26.3228C46.9155 26.4515 47.2438 26.5159 47.6118 26.5159C47.8579 26.5159 48.0875 26.4829 48.3006 26.4172L48.391 26.3871C48.5994 26.312 48.7912 26.2124 48.9665 26.088L49.0404 26.0331C49.2352 25.8829 49.4048 25.7112 49.5491 25.5181C49.7006 25.3178 49.8305 25.1032 49.9387 24.8743C50.1624 25.1032 50.3969 25.3285 50.6422 25.5503C50.8875 25.7648 51.1401 25.958 51.3998 26.1296C51.6668 26.3085 51.9482 26.4515 52.244 26.5588C52.5399 26.6661 52.8501 26.7197 53.1748 26.7197C53.6005 26.7197 53.9901 26.6268 54.3437 26.4408C54.6972 26.262 54.9967 26.0188 55.242 25.7112C55.463 25.4421 55.6397 25.1401 55.7723 24.8052L55.8265 24.6597C55.9464 24.3155 56.0138 23.9576 56.0288 23.586L56.0321 23.4259C56.0321 23.1541 55.9275 22.9216 55.7182 22.7285C55.5221 22.5408 55.2466 22.4408 54.8919 22.4291L54.8199 22.428C54.6395 22.428 54.5493 22.4817 54.5493 22.589L54.5507 22.6232C54.5534 22.6594 54.5602 22.7017 54.571 22.7499C54.5854 22.8071 54.5926 22.8858 54.5926 22.986L54.5914 23.0593C54.5859 23.233 54.5611 23.4232 54.5169 23.6297L54.4963 23.7175C54.4442 23.9209 54.3644 24.1134 54.2571 24.2949C54.1345 24.4952 53.9721 24.6633 53.7701 24.7992L53.6918 24.8471C53.5033 24.9511 53.2731 25.0031 53.0016 25.0031L53.0017 24.6989C53.2672 24.6989 53.4591 24.6411 53.5982 24.5475C53.765 24.4353 53.8963 24.2987 53.9953 24.137C54.0999 23.959 54.1737 23.7693 54.2171 23.5667C54.2642 23.3465 54.2862 23.1534 54.2862 22.986C54.2862 22.8961 54.2792 22.8457 54.2736 22.8236L54.2718 22.8159C54.2548 22.7401 54.2428 22.6626 54.2428 22.5891C54.2428 22.4324 54.3188 22.2913 54.4595 22.2076C54.5751 22.1389 54.709 22.1242 54.8198 22.1242C55.259 22.1242 55.6435 22.2373 55.9268 22.506C56.1952 22.7538 56.3385 23.0657 56.3385 23.426C56.3385 23.8878 56.2647 24.3326 56.1162 24.7589C55.9684 25.1829 55.757 25.5638 55.482 25.8995L55.4823 25.8998C55.2096 26.2418 54.8755 26.5131 54.4828 26.7117L54.4825 26.7114C54.0831 26.9205 53.6454 27.0237 53.1747 27.0237C52.8153 27.0237 52.4692 26.9643 52.1387 26.8444C51.819 26.7285 51.5154 26.5739 51.2283 26.3816C50.9571 26.2023 50.6941 26.0011 50.4394 25.7784L50.4376 25.7766L50.4358 25.7751C50.2912 25.6443 50.1504 25.5118 50.013 25.3785C49.9456 25.4887 49.8732 25.5955 49.7951 25.6988C49.634 25.9145 49.4449 26.1061 49.2286 26.273C49.0079 26.4431 48.763 26.5765 48.4957 26.6728C48.2205 26.772 47.9248 26.8198 47.6117 26.8198C47.2087 26.8198 46.8376 26.7493 46.5044 26.6013C46.1874 26.4643 45.9138 26.2765 45.6883 26.0364C45.4666 25.8003 45.2948 25.528 45.173 25.222L45.1706 25.2155C45.0566 24.9088 45 24.5871 45 24.2522C45 23.856 45.0761 23.487 45.2331 23.1502C45.3863 22.8145 45.5943 22.5259 45.8583 22.2887C46.0916 22.0785 46.3531 21.9111 46.6415 21.7869L46.7669 21.7362C47.1052 21.6013 47.4598 21.534 47.8284 21.534C47.9207 21.534 48.0117 21.5396 48.1016 21.5503C48.0041 21.2601 47.8924 20.9756 47.7655 20.6971L47.7646 20.6954C47.5615 20.2424 47.3621 19.7824 47.1664 19.3152L47.1649 19.3116C46.9729 18.8357 46.8035 18.335 46.6564 17.8101L46.6552 17.8062C46.5105 17.2623 46.4395 16.6707 46.4395 16.0333C46.4395 15.5364 46.5002 15.0435 46.6214 14.5552C46.742 14.0694 46.9119 13.6051 47.1311 13.1632L47.132 13.1614C47.3592 12.7108 47.6362 12.2936 47.9621 11.9104C48.2488 11.5733 48.5682 11.276 48.9201 11.0192L49.073 10.9114C49.487 10.623 49.9391 10.3994 50.4278 10.2405L50.429 10.2399C50.9304 10.0793 51.4604 10 52.0169 10C52.5458 10 53.034 10.0798 53.4773 10.2446C53.9121 10.4063 54.2913 10.6317 54.6106 10.923C54.9407 11.2103 55.1946 11.558 55.371 11.9626L55.4333 12.1143C55.5687 12.4719 55.635 12.8565 55.635 13.2653C55.635 13.7254 55.5652 14.1687 55.4249 14.5938C55.2869 15.0116 55.0989 15.4039 54.8608 15.7694C54.6241 16.1326 54.3489 16.4623 54.0354 16.758C53.7246 17.0511 53.3933 17.3041 53.0418 17.5162C52.6902 17.7284 52.3284 17.8929 51.9567 18.0081C51.5849 18.1233 51.222 18.1829 50.8695 18.1829C50.6832 18.1829 50.503 18.152 50.3308 18.0891L50.3281 18.0879L50.3257 18.087C50.1574 18.0222 50.0054 17.9256 49.8705 17.8009L49.8666 17.7973L49.8628 17.7934C49.7278 17.6597 49.6244 17.4948 49.547 17.3075L49.5446 17.3018L49.5425 17.2962C49.4697 17.0976 49.4375 16.8747 49.4375 16.6342C49.4375 16.5175 49.4532 16.3798 49.5237 16.2619C49.6091 16.1191 49.7538 16.0405 49.9169 16.0404C50.0041 16.0404 50.0762 16.0698 50.1246 16.0956C50.1693 16.1195 50.2095 16.1495 50.2455 16.1797C50.2359 16.1723 50.2526 16.1906 50.3392 16.1906L50.3392 16.4948L50.2946 16.4937C50.1935 16.4883 50.1146 16.4635 50.0578 16.4197C50 16.3696 49.9531 16.3446 49.9171 16.3446C49.8016 16.3446 49.7439 16.4411 49.7439 16.6343L49.7451 16.7134C49.7515 16.8949 49.78 17.0545 49.8305 17.1922C49.8954 17.3495 49.9784 17.4783 50.0794 17.5784C50.1876 17.6786 50.3067 17.7537 50.4366 17.8037C50.5565 17.8475 50.6819 17.8723 50.8129 17.8778L50.8695 17.8788C51.1473 17.8788 51.4362 17.8379 51.7361 17.7557L51.8652 17.7179C52.1683 17.624 52.4658 17.4945 52.7578 17.3294L52.8826 17.2565C53.2145 17.0563 53.5284 16.8166 53.8242 16.5377C54.0831 16.2936 54.3142 16.0248 54.5178 15.7314L54.6034 15.6042C54.8271 15.2609 55.0039 14.8925 55.1338 14.4991C55.2474 14.1549 55.3113 13.7969 55.3255 13.4253L55.3286 13.2653ZM53.2687 13.5764C53.2687 13.3926 53.241 13.2262 53.1882 13.075L53.187 13.0717C53.1358 12.9197 53.0577 12.7904 52.9527 12.6807L52.9473 12.6751L52.9422 12.6692C52.8477 12.5599 52.7244 12.473 52.5648 12.4109L52.5564 12.4073C52.4016 12.3416 52.2029 12.3031 51.9519 12.3031C51.4875 12.3031 51.0736 12.4066 50.7037 12.6089L50.7001 12.6107C50.3197 12.8122 49.9911 13.0853 49.7134 13.4327L49.7116 13.4348C49.4342 13.7753 49.2166 14.1785 49.061 14.6478L49.0604 14.649C48.9054 15.1101 48.8273 15.5961 48.8273 16.1084C48.8273 16.4639 48.8679 16.8163 48.9491 17.1656L49.0161 17.431C49.087 17.6964 49.1698 17.9623 49.2645 18.2284C49.392 18.5795 49.5302 18.9377 49.679 19.3033L49.7981 19.5862C49.9136 19.8697 50.0206 20.1611 50.1195 20.4602L50.1716 20.6102C50.2901 20.9611 50.3914 21.3228 50.4756 21.6952L50.5107 21.8567C50.5799 22.1975 50.6224 22.551 50.6399 22.9168C50.8485 23.1196 51.049 23.3223 51.2412 23.5254L51.4049 23.6902C51.5663 23.8502 51.7252 24.0003 51.8819 24.1402L52.0336 24.2652C52.183 24.3825 52.3307 24.4814 52.4762 24.5636C52.6507 24.6556 52.8247 24.6989 53.0017 24.6989L53.0016 25.0031L52.9153 25.0003C52.7149 24.9877 52.52 24.9315 52.3306 24.8314C52.1141 24.7098 51.8977 24.556 51.6812 24.37C51.5189 24.2252 51.3545 24.0703 51.1882 23.9054L51.021 23.737C50.8046 23.5081 50.5773 23.2792 50.3392 23.0503C50.3247 22.5997 50.2706 22.1705 50.1768 21.7628C50.083 21.348 49.9676 20.9474 49.8305 20.5612C49.7006 20.1678 49.5563 19.7887 49.3976 19.4239C49.246 19.0519 49.1053 18.6871 48.9755 18.3295C48.8456 17.9647 48.7374 17.5999 48.6508 17.2351C48.5642 16.8631 48.5209 16.4876 48.5209 16.1085C48.5209 15.6329 48.5844 15.1763 48.7115 14.7389L48.7698 14.5528C48.915 14.1147 49.1128 13.7259 49.363 13.3864L49.4733 13.2438C49.7385 12.9121 50.0478 12.6405 50.4014 12.4293L50.5556 12.3426C50.9741 12.1137 51.4395 11.9992 51.9518 11.9992L52.0555 12.0012C52.293 12.0106 52.5002 12.0529 52.6769 12.128C52.879 12.2066 53.0449 12.3211 53.1748 12.4713C53.3119 12.6144 53.4129 12.7825 53.4779 12.9756C53.5428 13.1616 53.5753 13.3618 53.5753 13.5764C53.5753 13.9054 53.4742 14.2452 53.2722 14.5957L53.1963 14.7232C53.0124 15.0173 52.7815 15.2895 52.5038 15.5399L52.3859 15.642C52.1065 15.8752 51.7994 16.07 51.4648 16.2265L51.3217 16.2895C50.9887 16.4264 50.6611 16.4948 50.3392 16.4948L50.3392 16.1906C50.6557 16.1906 50.9866 16.1142 51.3342 15.9517C51.6895 15.7855 52.0103 15.5731 52.2979 15.3146C52.5929 15.0487 52.8276 14.7592 53.005 14.4465L53.0062 14.4447C53.1877 14.1299 53.2687 13.8417 53.2687 13.5764Z" fill="white"/>
<path d="M129.974 26.7197C129.649 26.7197 129.339 26.6661 129.043 26.5588C128.748 26.4515 128.466 26.3085 128.199 26.1296C127.939 25.958 127.687 25.7648 127.442 25.5503C127.196 25.3285 126.962 25.1032 126.738 24.8743C126.63 25.1032 126.5 25.3178 126.348 25.5181C126.204 25.7112 126.035 25.8829 125.84 26.0331C125.645 26.1833 125.428 26.3013 125.19 26.3871C124.952 26.473 124.693 26.5159 124.411 26.5159C124.043 26.5159 123.715 26.4515 123.426 26.3228C123.145 26.2012 122.907 26.0366 122.712 25.8292C122.517 25.6218 122.366 25.3822 122.257 25.1104C122.156 24.8385 122.106 24.5524 122.106 24.252C122.106 23.8944 122.174 23.5689 122.311 23.2757C122.449 22.9752 122.633 22.7213 122.863 22.5139C123.102 22.2993 123.372 22.1348 123.675 22.0203C123.978 21.8987 124.296 21.8379 124.628 21.8379C124.75 21.8379 124.869 21.8487 124.985 21.8701C125.107 21.8844 125.226 21.9095 125.342 21.9452C125.212 21.4731 125.046 21.0154 124.844 20.5719C124.642 20.1213 124.444 19.6635 124.249 19.1985C124.061 18.7336 123.895 18.2436 123.751 17.7286C123.614 17.2136 123.545 16.6486 123.545 16.0334C123.545 15.5613 123.603 15.0928 123.718 14.6279C123.834 14.1629 123.996 13.7195 124.205 13.2975C124.422 12.8683 124.685 12.4713 124.996 12.1065C125.306 11.7417 125.656 11.427 126.045 11.1623C126.435 10.8905 126.861 10.6795 127.323 10.5293C127.792 10.3791 128.289 10.304 128.816 10.304C129.314 10.304 129.765 10.3791 130.169 10.5293C130.573 10.6795 130.919 10.887 131.208 11.1516C131.504 11.4091 131.731 11.7203 131.89 12.0851C132.049 12.4427 132.128 12.8361 132.128 13.2653C132.128 13.6944 132.063 14.1057 131.933 14.4991C131.803 14.8925 131.627 15.2609 131.403 15.6042C131.179 15.9476 130.919 16.2587 130.624 16.5377C130.328 16.8166 130.014 17.0563 129.682 17.2565C129.35 17.4568 129.011 17.6106 128.665 17.7179C128.318 17.8252 127.986 17.8788 127.669 17.8788C127.517 17.8788 127.373 17.8538 127.236 17.8037C127.106 17.7537 126.987 17.6786 126.879 17.5784C126.778 17.4783 126.695 17.3495 126.63 17.1922C126.572 17.0348 126.543 16.8488 126.543 16.6343C126.543 16.4411 126.601 16.3446 126.716 16.3446C126.753 16.3446 126.799 16.3696 126.857 16.4197C126.922 16.4697 127.016 16.4948 127.139 16.4948C127.507 16.4948 127.882 16.4054 128.264 16.2265C128.647 16.0477 128.993 15.8188 129.303 15.5399C129.621 15.2538 129.877 14.939 130.072 14.5957C130.274 14.2452 130.375 13.9054 130.375 13.5764C130.375 13.3618 130.342 13.1616 130.277 12.9756C130.212 12.7825 130.111 12.6144 129.974 12.4713C129.844 12.3211 129.678 12.2066 129.476 12.128C129.274 12.0421 129.033 11.9992 128.751 11.9992C128.239 11.9992 127.773 12.1137 127.355 12.3426C126.937 12.5643 126.576 12.8647 126.273 13.2438C125.97 13.6158 125.735 14.0521 125.569 14.5528C125.403 15.0463 125.32 15.5649 125.32 16.1085C125.32 16.4876 125.364 16.8631 125.45 17.2351C125.537 17.5999 125.645 17.9647 125.775 18.3295C125.905 18.6871 126.045 19.0519 126.197 19.4239C126.356 19.7887 126.5 20.1678 126.63 20.5612C126.767 20.9474 126.882 21.348 126.976 21.7628C127.07 22.1705 127.124 22.5997 127.139 23.0503C127.377 23.2792 127.604 23.5081 127.82 23.737C128.044 23.9659 128.264 24.1769 128.481 24.37C128.697 24.556 128.914 24.7098 129.13 24.8314C129.346 24.9458 129.57 25.0031 129.801 25.0031C130.111 25.0031 130.367 24.9351 130.569 24.7992C130.771 24.6633 130.934 24.4952 131.056 24.2949C131.179 24.0875 131.266 23.8658 131.316 23.6297C131.367 23.3937 131.392 23.1791 131.392 22.986C131.392 22.8858 131.385 22.8071 131.37 22.7499C131.356 22.6855 131.349 22.6319 131.349 22.589C131.349 22.4817 131.439 22.428 131.619 22.428C132.009 22.428 132.308 22.5282 132.518 22.7285C132.727 22.9216 132.831 23.1541 132.831 23.4259C132.831 23.855 132.763 24.2663 132.626 24.6597C132.489 25.0531 132.294 25.4036 132.041 25.7112C131.796 26.0188 131.497 26.262 131.143 26.4408C130.79 26.6268 130.4 26.7197 129.974 26.7197ZM124.476 23.3508C124.252 23.3508 124.061 23.4259 123.902 23.5761C123.751 23.7263 123.675 23.923 123.675 24.1662C123.675 24.3736 123.74 24.5632 123.87 24.7348C124.007 24.8993 124.202 24.9816 124.454 24.9816C124.606 24.9816 124.739 24.9494 124.855 24.885C124.978 24.8135 125.082 24.7205 125.169 24.6061C125.255 24.4916 125.324 24.3629 125.374 24.2198C125.432 24.0696 125.472 23.9123 125.493 23.7477C125.327 23.6261 125.162 23.5296 124.996 23.4581C124.83 23.3865 124.656 23.3508 124.476 23.3508Z" fill="white"/>
<path d="M123.675 24.1662C123.675 23.923 123.751 23.7263 123.902 23.5761C124.061 23.4259 124.252 23.3508 124.476 23.3508L124.543 23.3523C124.7 23.3602 124.85 23.3955 124.996 23.4581C125.162 23.5296 125.327 23.6261 125.493 23.7477C125.472 23.9123 125.432 24.0696 125.374 24.2198L125.333 24.3243C125.288 24.4262 125.234 24.5202 125.169 24.6061L125.136 24.6479C125.056 24.7434 124.962 24.8224 124.855 24.885C124.739 24.9494 124.606 24.9816 124.454 24.9816L124.454 24.6776C124.56 24.6776 124.64 24.6555 124.703 24.6209C124.788 24.5703 124.862 24.5055 124.924 24.4237C124.99 24.3357 125.045 24.2348 125.085 24.1195L125.087 24.1153L125.088 24.1114C125.116 24.0391 125.138 23.9645 125.156 23.8876C125.06 23.8273 124.966 23.7767 124.873 23.7368C124.746 23.6818 124.614 23.6549 124.476 23.6549C124.33 23.6549 124.216 23.7003 124.116 23.7941C124.032 23.8786 123.982 23.993 123.982 24.1661C123.982 24.3028 124.022 24.4268 124.11 24.5458C124.179 24.6253 124.279 24.6776 124.454 24.6776L124.454 24.9816L124.363 24.9777C124.154 24.9597 123.99 24.8788 123.87 24.7348C123.756 24.5847 123.692 24.4208 123.678 24.2433L123.675 24.1662ZM132.128 13.2653C132.128 12.8361 132.049 12.4427 131.89 12.0851C131.731 11.7203 131.504 11.4091 131.208 11.1516C130.956 10.9201 130.659 10.7323 130.318 10.5884L130.169 10.5293C129.815 10.3979 129.426 10.324 129.001 10.3076L128.816 10.304C128.289 10.304 127.792 10.3791 127.323 10.5293C126.861 10.6795 126.435 10.8905 126.045 11.1623C125.656 11.427 125.306 11.7417 124.996 12.1065L124.882 12.2449C124.62 12.5711 124.395 12.922 124.205 13.2975C123.996 13.7195 123.834 14.1629 123.718 14.6279L123.678 14.8025C123.589 15.21 123.545 15.6204 123.545 16.0334C123.545 16.6486 123.614 17.2136 123.751 17.7286C123.895 18.2436 124.061 18.7336 124.249 19.1985C124.444 19.6635 124.642 20.1213 124.844 20.5719C125.046 21.0154 125.212 21.4731 125.342 21.9452C125.226 21.9095 125.107 21.8844 124.985 21.8701C124.898 21.854 124.81 21.8441 124.719 21.8401L124.628 21.8379C124.296 21.8379 123.978 21.8987 123.675 22.0203C123.372 22.1348 123.102 22.2993 122.863 22.5139L122.779 22.5938C122.587 22.7855 122.431 23.0128 122.311 23.2757C122.174 23.5689 122.106 23.8944 122.106 24.252L122.108 24.3641C122.119 24.6238 122.169 24.8725 122.257 25.1104C122.366 25.3822 122.517 25.6218 122.712 25.8292C122.907 26.0366 123.145 26.2012 123.426 26.3228C123.715 26.4515 124.043 26.5159 124.411 26.5159C124.657 26.5159 124.887 26.4829 125.1 26.4172L125.19 26.3871C125.399 26.312 125.591 26.2124 125.766 26.088L125.84 26.0331C126.035 25.8829 126.204 25.7112 126.348 25.5181C126.5 25.3178 126.63 25.1032 126.738 24.8743C126.962 25.1032 127.196 25.3285 127.442 25.5503C127.687 25.7648 127.939 25.958 128.199 26.1296C128.466 26.3085 128.748 26.4515 129.043 26.5588C129.339 26.6661 129.649 26.7197 129.974 26.7197C130.4 26.7197 130.79 26.6268 131.143 26.4408C131.497 26.262 131.796 26.0188 132.041 25.7112C132.262 25.4421 132.439 25.1401 132.572 24.8052L132.626 24.6597C132.746 24.3155 132.813 23.9576 132.828 23.586L132.831 23.4259C132.831 23.1541 132.727 22.9216 132.518 22.7285C132.321 22.5408 132.046 22.4408 131.691 22.4291L131.619 22.428C131.439 22.428 131.349 22.4817 131.349 22.589L131.35 22.6232C131.353 22.6594 131.36 22.7017 131.37 22.7499C131.385 22.8071 131.392 22.8858 131.392 22.986L131.391 23.0593C131.385 23.233 131.36 23.4232 131.316 23.6297L131.296 23.7175C131.244 23.9209 131.164 24.1134 131.056 24.2949C130.934 24.4952 130.771 24.6633 130.569 24.7992L130.491 24.8471C130.303 24.9511 130.072 25.0031 129.801 25.0031L129.801 24.6989C130.067 24.6989 130.258 24.6411 130.398 24.5475C130.564 24.4353 130.696 24.2987 130.795 24.137C130.899 23.959 130.973 23.7693 131.016 23.5667C131.064 23.3465 131.086 23.1534 131.086 22.986C131.086 22.8961 131.079 22.8457 131.073 22.8236L131.071 22.8159C131.054 22.7401 131.042 22.6626 131.042 22.5891C131.042 22.4324 131.118 22.2913 131.259 22.2076C131.374 22.1389 131.508 22.1242 131.619 22.1242C132.058 22.1242 132.443 22.2373 132.726 22.506C132.995 22.7538 133.138 23.0657 133.138 23.426C133.138 23.8878 133.064 24.3326 132.916 24.7589C132.768 25.1829 132.556 25.5638 132.281 25.8995L132.282 25.8998C132.009 26.2418 131.675 26.5131 131.282 26.7117L131.282 26.7114C130.883 26.9205 130.445 27.0237 129.974 27.0237C129.615 27.0237 129.269 26.9643 128.938 26.8444C128.618 26.7285 128.315 26.5739 128.028 26.3816C127.757 26.2023 127.493 26.0011 127.239 25.7784L127.237 25.7766L127.235 25.7751C127.091 25.6443 126.95 25.5118 126.812 25.3785C126.745 25.4887 126.673 25.5955 126.594 25.6988C126.433 25.9145 126.244 26.1061 126.028 26.273C125.807 26.4431 125.562 26.5765 125.295 26.6728C125.02 26.772 124.724 26.8198 124.411 26.8198C124.008 26.8198 123.637 26.7493 123.304 26.6013C122.987 26.4643 122.713 26.2765 122.488 26.0364C122.266 25.8003 122.094 25.528 121.972 25.222L121.97 25.2155C121.856 24.9088 121.799 24.5871 121.799 24.2522C121.799 23.856 121.876 23.487 122.033 23.1502C122.186 22.8145 122.394 22.5259 122.658 22.2887C122.891 22.0785 123.152 21.9111 123.441 21.7869L123.566 21.7362C123.905 21.6013 124.259 21.534 124.628 21.534C124.72 21.534 124.811 21.5396 124.901 21.5503C124.803 21.2601 124.692 20.9756 124.565 20.6971L124.564 20.6954C124.361 20.2424 124.161 19.7824 123.966 19.3152L123.964 19.3116C123.772 18.8357 123.603 18.335 123.456 17.8101L123.455 17.8062C123.31 17.2623 123.239 16.6707 123.239 16.0333C123.239 15.5364 123.3 15.0435 123.421 14.5552C123.541 14.0694 123.711 13.6051 123.93 13.1632L123.931 13.1614C124.159 12.7108 124.436 12.2936 124.761 11.9104C125.048 11.5733 125.368 11.276 125.719 11.0192L125.872 10.9114C126.286 10.623 126.738 10.3994 127.227 10.2405L127.228 10.2399C127.73 10.0793 128.26 10 128.816 10C129.345 10 129.833 10.0798 130.277 10.2446C130.711 10.4063 131.091 10.6317 131.41 10.923C131.74 11.2103 131.994 11.558 132.17 11.9626L132.233 12.1143C132.368 12.4719 132.434 12.8565 132.434 13.2653C132.434 13.7254 132.365 14.1687 132.224 14.5938C132.086 15.0116 131.898 15.4039 131.66 15.7694C131.423 16.1326 131.148 16.4623 130.835 16.758C130.524 17.0511 130.193 17.3041 129.841 17.5162C129.49 17.7284 129.128 17.8929 128.756 18.0081C128.384 18.1233 128.021 18.1829 127.669 18.1829C127.483 18.1829 127.302 18.152 127.13 18.0891L127.127 18.0879L127.125 18.087C126.957 18.0222 126.805 17.9256 126.67 17.8009L126.666 17.7973L126.662 17.7934C126.527 17.6597 126.424 17.4948 126.346 17.3075L126.344 17.3018L126.342 17.2962C126.269 17.0976 126.237 16.8747 126.237 16.6342C126.237 16.5175 126.253 16.3798 126.323 16.2619C126.408 16.1191 126.553 16.0405 126.716 16.0404C126.803 16.0404 126.876 16.0698 126.924 16.0956C126.969 16.1195 127.009 16.1495 127.045 16.1797C127.035 16.1723 127.052 16.1906 127.139 16.1906L127.139 16.4948L127.094 16.4937C126.993 16.4883 126.914 16.4635 126.857 16.4197C126.799 16.3696 126.753 16.3446 126.716 16.3446C126.601 16.3446 126.543 16.4411 126.543 16.6343L126.545 16.7134C126.551 16.8949 126.579 17.0545 126.63 17.1922C126.695 17.3495 126.778 17.4783 126.879 17.5784C126.987 17.6786 127.106 17.7537 127.236 17.8037C127.356 17.8475 127.481 17.8723 127.612 17.8778L127.669 17.8788C127.947 17.8788 128.236 17.8379 128.536 17.7557L128.665 17.7179C128.968 17.624 129.265 17.4945 129.557 17.3294L129.682 17.2565C130.014 17.0563 130.328 16.8166 130.624 16.5377C130.882 16.2936 131.114 16.0248 131.317 15.7314L131.403 15.6042C131.627 15.2609 131.803 14.8925 131.933 14.4991C132.047 14.1549 132.111 13.7969 132.125 13.4253L132.128 13.2653ZM130.068 13.5764C130.068 13.3926 130.04 13.2262 129.988 13.075L129.986 13.0717C129.935 12.9197 129.857 12.7904 129.752 12.6807L129.747 12.6751L129.742 12.6692C129.647 12.5599 129.524 12.473 129.364 12.4109L129.356 12.4073C129.201 12.3416 129.002 12.3031 128.751 12.3031C128.287 12.3031 127.873 12.4066 127.503 12.6089L127.499 12.6107C127.119 12.8122 126.79 13.0853 126.513 13.4327L126.511 13.4348C126.234 13.7753 126.016 14.1785 125.86 14.6478L125.86 14.649C125.705 15.1101 125.627 15.5961 125.627 16.1084C125.627 16.4639 125.667 16.8163 125.748 17.1656L125.816 17.431C125.886 17.6964 125.969 17.9623 126.064 18.2284C126.191 18.5795 126.33 18.9377 126.478 19.3033L126.597 19.5862C126.713 19.8697 126.82 20.1611 126.919 20.4602L126.971 20.6102C127.09 20.9611 127.191 21.3228 127.275 21.6952L127.31 21.8567C127.379 22.1975 127.422 22.551 127.439 22.9168C127.648 23.1196 127.848 23.3223 128.041 23.5254L128.204 23.6902C128.366 23.8502 128.525 24.0003 128.681 24.1402L128.833 24.2652C128.982 24.3825 129.13 24.4814 129.276 24.5636C129.45 24.6556 129.624 24.6989 129.801 24.6989L129.801 25.0031L129.715 25.0003C129.514 24.9877 129.319 24.9315 129.13 24.8314C128.914 24.7098 128.697 24.556 128.481 24.37C128.318 24.2252 128.154 24.0703 127.988 23.9054L127.82 23.737C127.604 23.5081 127.377 23.2792 127.139 23.0503C127.124 22.5997 127.07 22.1705 126.976 21.7628C126.882 21.348 126.767 20.9474 126.63 20.5612C126.5 20.1678 126.356 19.7887 126.197 19.4239C126.045 19.0519 125.905 18.6871 125.775 18.3295C125.645 17.9647 125.537 17.5999 125.45 17.2351C125.364 16.8631 125.32 16.4876 125.32 16.1085C125.32 15.6329 125.384 15.1763 125.511 14.7389L125.569 14.5528C125.714 14.1147 125.912 13.7259 126.162 13.3864L126.273 13.2438C126.538 12.9121 126.847 12.6405 127.201 12.4293L127.355 12.3426C127.773 12.1137 128.239 11.9992 128.751 11.9992L128.855 12.0012C129.092 12.0106 129.3 12.0529 129.476 12.128C129.678 12.2066 129.844 12.3211 129.974 12.4713C130.111 12.6144 130.212 12.7825 130.277 12.9756C130.342 13.1616 130.375 13.3618 130.375 13.5764C130.375 13.9054 130.274 14.2452 130.072 14.5957L129.996 14.7232C129.812 15.0173 129.581 15.2895 129.303 15.5399L129.185 15.642C128.906 15.8752 128.599 16.07 128.264 16.2265L128.121 16.2895C127.788 16.4264 127.461 16.4948 127.139 16.4948L127.139 16.1906C127.455 16.1906 127.786 16.1142 128.134 15.9517C128.489 15.7855 128.81 15.5731 129.097 15.3146C129.392 15.0487 129.627 14.7592 129.804 14.4465L129.806 14.4447C129.987 14.1299 130.068 13.8417 130.068 13.5764Z" fill="white"/>
<path d="M162.215 27.0116C161.208 27.0116 160.319 26.7911 159.547 26.3501C158.789 25.9091 158.194 25.2995 157.762 24.5212C157.331 23.743 157.115 22.8351 157.115 21.7974C157.115 20.7728 157.324 19.8713 157.743 19.0931C158.174 18.3019 158.763 17.6923 159.508 17.2643C160.266 16.8233 161.136 16.6028 162.116 16.6028C163.097 16.6028 163.947 16.8298 164.666 17.2837C165.398 17.7247 165.967 18.3473 166.372 19.1515C166.791 19.9556 167 20.896 167 21.9725V22.3422L166.706 22.634H158.174V20.7663H165.98L164.784 21.2138C164.771 20.669 164.64 20.2021 164.392 19.813C164.156 19.4109 163.842 19.1061 163.45 18.8985C163.071 18.678 162.639 18.5678 162.156 18.5678C161.633 18.5678 161.155 18.691 160.724 18.9375C160.292 19.1709 159.959 19.5017 159.724 19.9297C159.488 20.3448 159.371 20.8311 159.371 21.3889V22.1671C159.371 22.6989 159.495 23.1853 159.743 23.6263C160.005 24.0543 160.351 24.398 160.783 24.6574C161.214 24.9168 161.692 25.0465 162.215 25.0465C162.711 25.0465 163.162 24.9168 163.568 24.6574C163.986 24.3851 164.313 24.0219 164.548 23.5679H164.784L166.608 24.3461C166.215 25.1892 165.634 25.8442 164.862 26.3112C164.104 26.7781 163.221 27.0116 162.215 27.0116Z" fill="white"/>
<path d="M154.177 26.7198C153.209 26.7198 152.438 26.4214 151.863 25.8248C151.287 25.2152 151 24.398 151 23.3734V14.3459H153.255V23.1399C153.255 23.6587 153.386 24.0478 153.647 24.3072C153.922 24.5667 154.314 24.6964 154.824 24.6964H155.844L155.942 24.9104V26.7198H154.177ZM149.313 18.8986V16.8946H155.942V18.8986H149.313Z" fill="white"/>
<path d="M146.057 26.7197V16.8946H148.312V26.7197H146.057ZM147.194 15.416C146.802 15.416 146.469 15.2798 146.194 15.0074C145.92 14.735 145.782 14.3978 145.782 13.9957C145.782 13.6196 145.92 13.2953 146.194 13.0229C146.469 12.7376 146.809 12.5949 147.214 12.5949C147.593 12.5949 147.92 12.7376 148.195 13.0229C148.482 13.2953 148.626 13.6261 148.626 14.0152C148.626 14.4043 148.482 14.735 148.195 15.0074C147.92 15.2798 147.587 15.416 147.194 15.416Z" fill="white"/>
<path d="M139.327 27.0116C138.32 27.0116 137.431 26.7911 136.659 26.3501C135.901 25.9091 135.306 25.2995 134.875 24.5212C134.443 23.743 134.227 22.8351 134.227 21.7974C134.227 20.7728 134.437 19.8713 134.855 19.0931C135.287 18.3019 135.875 17.6923 136.62 17.2643C137.379 16.8233 138.248 16.6028 139.229 16.6028C140.209 16.6028 141.059 16.8298 141.778 17.2837C142.511 17.7247 143.079 18.3473 143.485 19.1515C143.903 19.9556 144.112 20.896 144.112 21.9725V22.3422L143.818 22.634H135.287V20.7663H143.092L141.896 21.2138C141.883 20.669 141.752 20.2021 141.504 19.813C141.268 19.4109 140.955 19.1061 140.562 18.8985C140.183 18.678 139.752 18.5678 139.268 18.5678C138.745 18.5678 138.268 18.691 137.836 18.9375C137.405 19.1709 137.071 19.5017 136.836 19.9297C136.601 20.3448 136.483 20.8311 136.483 21.3889V22.1671C136.483 22.6989 136.607 23.1853 136.856 23.6263C137.117 24.0543 137.464 24.398 137.895 24.6574C138.327 24.9168 138.804 25.0465 139.327 25.0465C139.824 25.0465 140.275 24.9168 140.68 24.6574C141.098 24.3851 141.425 24.0219 141.661 23.5679H141.896L143.72 24.3461C143.328 25.1892 142.746 25.8442 141.974 26.3112C141.216 26.7781 140.334 27.0116 139.327 27.0116Z" fill="white"/>
<path d="M99.2161 27.3156C98.327 27.3156 97.5229 27.0951 96.8038 26.6541C96.0847 26.2001 95.5159 25.584 95.0975 24.8058C94.6791 24.0276 94.4699 23.1326 94.4699 22.1209C94.4699 21.0962 94.6791 20.1948 95.0975 19.4166C95.5159 18.6383 96.0847 18.0287 96.8038 17.5877C97.5229 17.1338 98.327 16.9068 99.2161 16.9068C99.9484 16.9068 100.602 17.0559 101.177 17.3543C101.766 17.6526 102.25 18.0417 102.629 18.5216C103.021 18.9885 103.296 19.5009 103.452 20.0586V24.1832C103.296 24.728 103.021 25.2403 102.629 25.7202C102.25 26.2001 101.766 26.5892 101.177 26.8876C100.602 27.1729 99.9484 27.3156 99.2161 27.3156ZM99.5496 25.2727C100.125 25.2727 100.628 25.143 101.06 24.8836C101.491 24.6112 101.831 24.2351 102.08 23.7552C102.328 23.2753 102.452 22.724 102.452 22.1014C102.452 21.4789 102.328 20.9341 102.08 20.4672C101.831 19.9873 101.491 19.6111 101.06 19.3387C100.628 19.0664 100.125 18.9302 99.5496 18.9302C99.0004 18.9302 98.5101 19.0664 98.0786 19.3387C97.6471 19.6111 97.3137 19.9873 97.0784 20.4672C96.843 20.9341 96.7253 21.4789 96.7253 22.1014C96.7253 22.724 96.843 23.2753 97.0784 23.7552C97.3137 24.2351 97.6471 24.6112 98.0786 24.8836C98.5101 25.143 99.0004 25.2727 99.5496 25.2727ZM102.531 27.0237V23.9887L103.001 22.1014L102.393 20.2337V13.0156L104.59 12.7433L104.649 12.8989V27.0237H102.531Z" fill="white"/>
<path d="M111.808 27.3156C110.801 27.3156 109.912 27.0951 109.141 26.6541C108.382 26.2131 107.787 25.6035 107.356 24.8252C106.924 24.047 106.709 23.1391 106.709 22.1014C106.709 21.0768 106.918 20.1753 107.336 19.3971C107.768 18.6059 108.356 17.9963 109.101 17.5683C109.86 17.1273 110.729 16.9068 111.71 16.9068C112.69 16.9068 113.54 17.1338 114.259 17.5877C114.992 18.0287 115.56 18.6513 115.966 19.4555C116.384 20.2596 116.593 21.2 116.593 22.2765V22.6462L116.299 22.938H107.768V21.0703H115.574L114.377 21.5178C114.364 20.973 114.233 20.5061 113.985 20.117C113.75 19.7149 113.436 19.4101 113.044 19.2025C112.664 18.982 112.233 18.8718 111.749 18.8718C111.226 18.8718 110.749 18.995 110.317 19.2415C109.886 19.4749 109.552 19.8057 109.317 20.2337C109.082 20.6488 108.964 21.1351 108.964 21.6929V22.4711C108.964 23.0029 109.088 23.4893 109.337 23.9303C109.598 24.3583 109.945 24.702 110.376 24.9614C110.808 25.2208 111.285 25.3505 111.808 25.3505C112.305 25.3505 112.756 25.2208 113.161 24.9614C113.58 24.6891 113.906 24.3259 114.142 23.8719H114.377L116.201 24.6501C115.809 25.4932 115.227 26.1482 114.456 26.6152C113.697 27.0821 112.815 27.3156 111.808 27.3156Z" fill="white"/>
<defs>
<linearGradient id="paint0_linear_717_753" x1="16.5" y1="0" x2="16.5" y2="25.1533" gradientUnits="userSpaceOnUse">
<stop stop-color="#EBDFFF"/>
<stop offset="1" stop-color="#FAF7FF"/>
</linearGradient>
<linearGradient id="paint1_linear_717_753" x1="16.5" y1="0" x2="16.5" y2="25.1533" gradientUnits="userSpaceOnUse">
<stop stop-color="#EBDFFF"/>
<stop offset="1" stop-color="#FAF7FF"/>
</linearGradient>
<linearGradient id="paint2_linear_717_753" x1="16.5" y1="0" x2="16.5" y2="25.1533" gradientUnits="userSpaceOnUse">
<stop stop-color="#EBDFFF"/>
<stop offset="1" stop-color="#FAF7FF"/>
</linearGradient>
<linearGradient id="paint3_linear_717_753" x1="16.5" y1="0" x2="16.5" y2="25.1533" gradientUnits="userSpaceOnUse">
<stop stop-color="#EBDFFF"/>
<stop offset="1" stop-color="#FAF7FF"/>
</linearGradient>
<linearGradient id="paint4_linear_717_753" x1="18.1239" y1="25.7393" x2="18.1239" y2="34.3032" gradientUnits="userSpaceOnUse">
<stop stop-color="#EBDFFF"/>
<stop offset="1" stop-color="#FAF7FF"/>
</linearGradient>
<linearGradient id="paint5_linear_717_753" x1="14.8897" y1="25.7393" x2="14.8897" y2="34.3032" gradientUnits="userSpaceOnUse">
<stop stop-color="#EBDFFF"/>
<stop offset="1" stop-color="#FAF7FF"/>
</linearGradient>
<linearGradient id="paint6_linear_717_753" x1="16.5" y1="22.6357" x2="16.5" y2="30.0307" gradientUnits="userSpaceOnUse">
<stop stop-color="#EBDFFF"/>
<stop offset="1" stop-color="#FAF7FF"/>
</linearGradient>
</defs>
</svg>
