<svg width="161" height="34" viewBox="0 0 161 34" fill="none" xmlns="http://www.w3.org/2000/svg">
<path d="M16.3538 4.49887L15.5323 5.28766C15.6388 5.39777 15.7664 5.48535 15.9075 5.54517C16.0487 5.60499 16.2005 5.63582 16.3538 5.63582C16.5072 5.63582 16.659 5.60499 16.8001 5.54517C16.9413 5.48535 17.0689 5.39777 17.1753 5.28766L16.3538 4.49887ZM2.28193 10.0159C2.28193 6.75452 4.13029 4.01801 6.65411 2.86667C9.10642 1.74871 12.4015 2.0445 15.5323 5.28766L17.1753 3.71159C13.4634 -0.136816 9.14901 -0.772402 5.70482 0.797602C2.3367 2.33423 0 5.90201 0 10.0159H2.28193ZM32.7076 10.0159C32.7076 5.90201 30.3725 2.33423 27.0028 0.797602C23.5586 -0.772402 19.2473 -0.136816 15.5323 3.71007L17.1753 5.28766C20.3061 2.04602 23.6012 1.74871 26.0535 2.86667C28.5774 4.01801 30.4257 6.753 30.4257 10.0159H32.7076Z" fill="url(#paint0_linear_717_758)"/>
<path d="M3.90514 19.6316C5.74611 21.6983 8.01632 23.4174 9.98559 24.9305L12.2277 23.784C9.97941 22.0282 7.55035 20.2977 5.6105 18.1207C3.65109 15.9182 2.28193 13.3501 2.28193 10.0159H0C0 14.06 1.68863 17.1454 3.90514 19.6316Z" fill="url(#paint1_linear_717_758)"/>
<path d="M20.2696 23.9487L23.2845 24.498C25.1141 23.091 27.1345 21.5053 28.8025 19.6316C31.019 17.1439 32.7076 14.06 32.7076 10.0159H30.4257C30.4257 13.3501 29.0566 15.9182 27.0971 18.1207C25.0967 20.3658 22.5759 22.136 20.2696 23.9487Z" fill="url(#paint2_linear_717_758)"/>
<path d="M20.7775 13.7078C20.7775 12.0847 19.7982 10.3188 18.5568 8.77479C17.8727 7.9345 17.1253 7.14799 16.3211 6.42213C15.5169 7.148 14.7693 7.93436 14.0853 8.77466L14.0854 8.77472C12.844 10.3188 11.8647 12.0847 11.8647 13.7078C11.8647 14.889 12.3342 16.0218 13.1699 16.8572C14.0057 17.6924 15.1392 18.1618 16.3211 18.1618C17.5031 18.1618 18.6366 17.6924 19.4723 16.8572C20.308 16.0218 20.7775 14.889 20.7775 13.7078ZM23.0262 13.7078C23.0262 15.4853 22.3197 17.1899 21.0623 18.4467C19.8048 19.7035 18.0993 20.4096 16.3211 20.4096C14.5429 20.4096 12.8374 19.7035 11.58 18.4467C10.3225 17.1899 9.61605 15.4853 9.61605 13.7078C9.61605 11.2862 11.014 9.00726 12.3323 7.36797L12.3328 7.3674C12.333 7.36708 12.3333 7.36676 12.3335 7.36644L12.3336 7.36638L12.3344 7.36529C13.2862 6.19229 14.3515 5.1154 15.5133 4.15004L15.5164 4.14748L15.5177 4.14646C15.7443 3.96092 16.0281 3.8595 16.3211 3.8595C16.5974 3.8595 16.8657 3.94972 17.0854 4.11567L17.1065 4.13196L17.1073 4.1326L17.1081 4.13317L17.1267 4.14825L17.1278 4.14914L17.1288 4.15004L17.2341 4.23807C18.2843 5.12119 19.2537 6.09592 20.1309 7.15071L20.2182 7.25644L20.2186 7.25682L20.3051 7.36274L20.306 7.36376L20.3087 7.36714C21.6274 9.00581 23.0262 11.2854 23.0262 13.7078Z" fill="url(#paint3_linear_717_758)"/>
<path d="M20.7775 13.7078C20.7775 12.0847 19.7982 10.3188 18.5568 8.77479C17.8727 7.9345 17.1253 7.14799 16.3211 6.42213C15.5169 7.148 14.7693 7.93436 14.0853 8.77466L14.0854 8.77472C12.844 10.3188 11.8647 12.0847 11.8647 13.7078C11.8647 14.889 12.3342 16.0218 13.1699 16.8572C14.0057 17.6924 15.1392 18.1618 16.3211 18.1618C17.5031 18.1618 18.6366 17.6924 19.4723 16.8572C20.308 16.0218 20.7775 14.889 20.7775 13.7078Z" fill="#E4DFED"/>
<path d="M17.9376 9.88951C18.145 9.74485 18.4304 9.7957 18.5751 10.0031C19.0577 10.6951 19.3823 11.2757 19.602 11.8988C19.8213 12.5207 19.9278 13.1618 20.0011 13.9622C20.0242 14.214 19.8387 14.4369 19.5869 14.46C19.3351 14.4831 19.1122 14.2976 19.0891 14.0458C19.0189 13.279 18.9215 12.7229 18.7383 12.2034C18.5556 11.6851 18.2792 11.1797 17.824 10.527C17.6793 10.3196 17.7302 10.0342 17.9376 9.88951Z" fill="#F4EFFF"/>
<path d="M19.2203 29.5703C19.1186 28.544 18.8012 27.753 18.2146 27.0752C17.6785 26.4558 16.9523 25.9824 16.2276 25.5117L14.9805 27.4318C15.7658 27.9418 16.1982 28.244 16.4834 28.5736C16.7149 28.841 16.8814 29.1674 16.9431 29.8074L16.9439 29.816L16.9449 29.8247C17.0531 30.7918 17.2517 31.6889 17.809 32.437C18.1823 32.9381 18.664 33.3035 19.2297 33.5958C19.6336 33.8046 20.069 33.4379 19.987 32.9906L19.9807 32.9562C19.9447 32.7599 20.0216 32.56 20.1799 32.4384C20.5132 32.1824 20.4252 31.6647 20.0689 31.4418C19.8598 31.3109 19.7334 31.1878 19.6451 31.0692C19.4619 30.8233 19.3166 30.4312 19.2203 29.5703Z" fill="url(#paint4_linear_717_758)"/>
<path d="M13.5063 29.5703C13.6079 28.544 13.9254 27.753 14.512 27.0752C15.0481 26.4558 15.7743 25.9824 16.499 25.5117L17.7461 27.4318C16.9608 27.9418 16.5284 28.244 16.2431 28.5736C16.0116 28.841 15.8452 29.1674 15.7834 29.8074L15.7826 29.816L15.7817 29.8247C15.6735 30.7918 15.4749 31.6889 14.9175 32.437C14.5442 32.9381 14.0626 33.3035 13.4969 33.5958C13.0929 33.8046 12.6576 33.4379 12.7396 32.9906L12.7459 32.9562C12.7819 32.7599 12.705 32.56 12.5467 32.4384C12.2134 32.1824 12.3014 31.6647 12.6577 31.4418C12.8668 31.3109 12.9931 31.1878 13.0815 31.0692C13.2647 30.8233 13.41 30.4312 13.5063 29.5703Z" fill="url(#paint5_linear_717_758)"/>
<path d="M19.7603 22.7309C22.0421 21.6996 24.5316 23.5 24.5316 26.0984V26.0999L24.5311 26.1578V26.1585L24.531 26.1592C24.4928 28.7247 22.024 30.4889 19.7603 29.4657L16.3589 27.9283L12.9489 29.4696C10.6671 30.501 8.17773 28.7006 8.17773 26.1022C8.17775 23.5038 10.6671 21.7035 12.9489 22.7348L16.3503 24.2722L19.7603 22.7309ZM22.3552 26.0984C22.3552 25.1081 21.4241 24.4817 20.6162 24.8468L18.7705 25.6811C18.4115 25.8434 18.4115 26.3533 18.7705 26.5156L20.6162 27.3499C21.424 27.715 22.3551 27.0886 22.3552 26.0984ZM10.3541 26.1022C10.3541 27.0924 11.2852 27.7188 12.093 27.3537L13.9387 26.5195C14.2978 26.3572 14.2977 25.8473 13.9387 25.685L12.093 24.8507C11.2852 24.4856 10.3541 25.112 10.3541 26.1022Z" fill="url(#paint6_linear_717_758)"/>
<path d="M78.5428 24.0116C77.5491 24.0116 76.673 23.7911 75.9147 23.3501C75.1563 22.9091 74.5614 22.2995 74.1299 21.5213C73.6985 20.7301 73.4827 19.8221 73.4827 18.7975C73.4827 17.7858 73.6985 16.8908 74.1299 16.1126C74.5614 15.3214 75.1563 14.7053 75.9147 14.2643C76.673 13.8233 77.5491 13.6028 78.5428 13.6028C79.5495 13.6028 80.4321 13.8233 81.1905 14.2643C81.9488 14.7053 82.5437 15.3214 82.9752 16.1126C83.4067 16.8908 83.6224 17.7858 83.6224 18.7975C83.6224 19.8221 83.4067 20.7301 82.9752 21.5213C82.5437 22.2995 81.9488 22.9091 81.1905 23.3501C80.4321 23.7911 79.5495 24.0116 78.5428 24.0116ZM78.5428 21.9882C79.1181 21.9882 79.6149 21.8585 80.0333 21.5991C80.4517 21.3397 80.7786 20.97 81.014 20.4901C81.2493 20.0102 81.367 19.4525 81.367 18.8169C81.367 18.1554 81.2493 17.5912 81.014 17.1243C80.7786 16.6444 80.4517 16.2747 80.0333 16.0153C79.6149 15.7559 79.1181 15.6262 78.5428 15.6262C77.9805 15.6262 77.4902 15.7559 77.0718 16.0153C76.6534 16.2747 76.3265 16.6444 76.0912 17.1243C75.8558 17.5912 75.7382 18.1489 75.7382 18.7975C75.7382 19.446 75.8558 20.0102 76.0912 20.4901C76.3265 20.97 76.6534 21.3397 77.0718 21.5991C77.4902 21.8585 77.9805 21.9882 78.5428 21.9882Z" fill="url(#paint7_linear_717_758)"/>
<path d="M67.3593 24.0116C66.3394 24.0116 65.4438 23.7911 64.6724 23.3501C63.9009 22.9091 63.2995 22.2995 62.868 21.5213C62.4365 20.743 62.2208 19.8351 62.2208 18.7975C62.2208 17.7728 62.4365 16.8713 62.868 16.0931C63.2995 15.3019 63.9009 14.6923 64.6724 14.2643C65.4438 13.8233 66.3394 13.6028 67.3593 13.6028C68.1438 13.6028 68.8433 13.7325 69.4578 13.9919C70.0855 14.2513 70.615 14.6339 71.0465 15.1398C71.478 15.6456 71.8048 16.2682 72.0271 17.0075L70.1443 17.5328H69.9089C69.7259 16.9492 69.399 16.4887 68.9283 16.1515C68.4576 15.8013 67.9346 15.6262 67.3593 15.6262C66.7709 15.6262 66.261 15.7559 65.8295 16.0153C65.398 16.2747 65.0646 16.6444 64.8293 17.1243C64.5939 17.5912 64.4762 18.1489 64.4762 18.7975C64.4762 19.433 64.5939 19.9907 64.8293 20.4706C65.0646 20.9506 65.398 21.3267 65.8295 21.5991C66.261 21.8585 66.7709 21.9882 67.3593 21.9882C67.7777 21.9882 68.1569 21.9104 68.4968 21.7547C68.8499 21.5991 69.1571 21.3786 69.4186 21.0932C69.6801 20.8079 69.8763 20.4642 70.007 20.0621H70.2424L72.1252 20.5874C71.8898 21.3397 71.5499 21.9752 71.1053 22.494C70.6608 22.9999 70.1247 23.3825 69.4971 23.6419C68.8825 23.8884 68.17 24.0116 67.3593 24.0116ZM66.8886 28C66.7055 28 66.5094 27.9741 66.3002 27.9222C66.091 27.8703 65.8622 27.773 65.6138 27.6303L66.0649 26.3657L66.2414 26.3268C66.346 26.3917 66.444 26.4371 66.5356 26.463C66.6402 26.4889 66.7317 26.5019 66.8101 26.5019C66.9801 26.5019 67.1109 26.4565 67.2024 26.3657C67.2939 26.2879 67.3397 26.1841 67.3397 26.0544C67.3397 25.9507 67.2939 25.8469 67.2024 25.7431C67.1109 25.6523 66.9801 25.607 66.8101 25.607C66.614 25.607 66.4637 25.6588 66.3591 25.7626L65.6138 24.8287L66.5748 23.4668H68.3007L66.9867 25.2178L66.6925 24.3229C66.7578 24.3099 66.8232 24.2969 66.8886 24.284C66.954 24.284 67.0259 24.284 67.1043 24.284C67.6143 24.284 68.0392 24.4526 68.3792 24.7898C68.7322 25.127 68.9087 25.5421 68.9087 26.035C68.9087 26.6446 68.706 27.1245 68.3007 27.4747C67.9085 27.8249 67.4377 28 66.8886 28Z" fill="url(#paint8_linear_717_758)"/>
<path d="M54.9497 24.0116C54.2698 24.0116 53.6618 23.8819 53.1257 23.6225C52.6027 23.3631 52.1909 22.9999 51.8902 22.5329C51.5894 22.066 51.4391 21.5342 51.4391 20.9376C51.4391 20.0167 51.7594 19.2838 52.4001 18.7391C53.0408 18.1814 53.9626 17.8571 55.1655 17.7663L59.0095 17.455V19.3033L55.4989 19.5951C54.8713 19.647 54.4202 19.7767 54.1456 19.9843C53.871 20.1918 53.7337 20.4706 53.7337 20.8208C53.7337 21.171 53.8906 21.4564 54.2044 21.6769C54.5182 21.8974 54.917 22.0076 55.4008 22.0076C55.9107 22.0076 56.3684 21.8844 56.7737 21.638C57.1921 21.3786 57.5255 21.0478 57.7739 20.6457C58.0224 20.2437 58.1466 19.8091 58.1466 19.3422V17.7274C58.1466 17.1048 57.9374 16.5925 57.519 16.1904C57.1006 15.7753 56.5514 15.5678 55.8715 15.5678C55.2962 15.5678 54.819 15.7105 54.4398 15.9958C54.0737 16.2682 53.8383 16.6119 53.7337 17.027H53.518L51.596 16.56C51.8313 15.6781 52.3216 14.9647 53.0669 14.4199C53.8253 13.8752 54.7667 13.6028 55.8911 13.6028C57.2902 13.6028 58.3819 14.0049 59.1664 14.809C59.9509 15.6002 60.3432 16.7222 60.3432 18.1749V23.7197H58.3427V20.8598L59.1468 20.9765C58.9899 21.5342 58.7088 22.0466 58.3035 22.5135C57.8982 22.9675 57.4078 23.3306 56.8325 23.603C56.2703 23.8754 55.6427 24.0116 54.9497 24.0116Z" fill="url(#paint9_linear_717_758)"/>
<path d="M47.1748 23.7197C46.8501 23.7197 46.5399 23.6661 46.244 23.5588C45.9482 23.4515 45.6668 23.3085 45.3998 23.1296C45.1401 22.958 44.8875 22.7648 44.6422 22.5503C44.3969 22.3285 44.1624 22.1032 43.9387 21.8743C43.8305 22.1032 43.7006 22.3178 43.5491 22.5181C43.4048 22.7112 43.2352 22.8829 43.0404 23.0331C42.8456 23.1833 42.6291 23.3013 42.391 23.3871C42.1529 23.473 41.8932 23.5159 41.6118 23.5159C41.2438 23.5159 40.9155 23.4515 40.6269 23.3228C40.3455 23.2012 40.1074 23.0366 39.9125 22.8292C39.7177 22.6218 39.5662 22.3822 39.458 22.1104C39.357 21.8385 39.3064 21.5524 39.3064 21.252C39.3064 20.8944 39.375 20.5689 39.5121 20.2757C39.6492 19.9752 39.8332 19.7213 40.0641 19.5139C40.3022 19.2993 40.5727 19.1348 40.8758 19.0203C41.1788 18.8987 41.4963 18.8379 41.8282 18.8379C41.9509 18.8379 42.0699 18.8487 42.1854 18.8701C42.308 18.8844 42.4271 18.9095 42.5425 18.9452C42.4127 18.4731 42.2467 18.0154 42.0447 17.5719C41.8426 17.1213 41.6442 16.6635 41.4494 16.1985C41.2618 15.7336 41.0959 15.2436 40.9516 14.7286C40.8145 14.2136 40.7459 13.6486 40.7459 13.0334C40.7459 12.5613 40.8036 12.0928 40.9191 11.6279C41.0345 11.1629 41.1969 10.7195 41.4061 10.2975C41.6226 9.86829 41.8859 9.4713 42.1962 9.10651C42.5065 8.74171 42.8564 8.42699 43.246 8.16234C43.6357 7.89053 44.0614 7.67952 44.5232 7.52931C44.9922 7.3791 45.49 7.304 46.0167 7.304C46.5146 7.304 46.9656 7.3791 47.3696 7.52931C47.7737 7.67952 48.12 7.88695 48.4086 8.15161C48.7045 8.40911 48.9317 8.72026 49.0905 9.08505C49.2492 9.44269 49.3286 9.8361 49.3286 10.2653C49.3286 10.6944 49.2637 11.1057 49.1338 11.4991C49.0039 11.8925 48.8271 12.2609 48.6034 12.6042C48.3798 12.9476 48.12 13.2587 47.8242 13.5377C47.5284 13.8166 47.2145 14.0563 46.8826 14.2565C46.5507 14.4568 46.2116 14.6106 45.8652 14.7179C45.5189 14.8252 45.187 14.8788 44.8695 14.8788C44.718 14.8788 44.5737 14.8538 44.4366 14.8037C44.3067 14.7537 44.1876 14.6786 44.0794 14.5784C43.9784 14.4783 43.8954 14.3495 43.8305 14.1922C43.7728 14.0348 43.7439 13.8488 43.7439 13.6343C43.7439 13.4411 43.8016 13.3446 43.9171 13.3446C43.9531 13.3446 44 13.3696 44.0578 13.4197C44.1227 13.4697 44.2165 13.4948 44.3392 13.4948C44.7072 13.4948 45.0823 13.4054 45.4648 13.2265C45.8472 13.0477 46.1935 12.8188 46.5038 12.5399C46.8213 12.2538 47.0774 11.939 47.2722 11.5957C47.4742 11.2452 47.5753 10.9054 47.5753 10.5764C47.5753 10.3618 47.5428 10.1616 47.4779 9.97558C47.4129 9.78245 47.3119 9.61436 47.1748 9.4713C47.0449 9.32109 46.879 9.20665 46.6769 9.12797C46.4749 9.04213 46.2332 8.99922 45.9518 8.99922C45.4395 8.99922 44.9741 9.11366 44.5556 9.34255C44.1371 9.56429 43.7764 9.86471 43.4733 10.2438C43.1703 10.6158 42.9358 11.0521 42.7698 11.5528C42.6039 12.0463 42.5209 12.5649 42.5209 13.1085C42.5209 13.4876 42.5642 13.8631 42.6508 14.2351C42.7374 14.5999 42.8456 14.9647 42.9755 15.3295C43.1053 15.6871 43.246 16.0519 43.3976 16.4239C43.5563 16.7887 43.7006 17.1677 43.8305 17.5612C43.9676 17.9474 44.083 18.348 44.1768 18.7628C44.2706 19.1705 44.3247 19.5997 44.3392 20.0503C44.5773 20.2792 44.8046 20.5081 45.021 20.737C45.2447 20.9659 45.4648 21.1769 45.6812 21.37C45.8977 21.556 46.1141 21.7098 46.3306 21.8314C46.5471 21.9458 46.7707 22.0031 47.0016 22.0031C47.3119 22.0031 47.568 21.9351 47.7701 21.7992C47.9721 21.6633 48.1345 21.4952 48.2571 21.2949C48.3798 21.0875 48.4664 20.8658 48.5169 20.6297C48.5674 20.3937 48.5926 20.1791 48.5926 19.986C48.5926 19.8858 48.5854 19.8071 48.571 19.7499C48.5566 19.6855 48.5493 19.6319 48.5493 19.589C48.5493 19.4817 48.6395 19.428 48.8199 19.428C49.2095 19.428 49.509 19.5282 49.7182 19.7285C49.9275 19.9216 50.0321 20.1541 50.0321 20.4259C50.0321 20.855 49.9635 21.2663 49.8265 21.6597C49.6894 22.0531 49.4945 22.4036 49.242 22.7112C48.9967 23.0188 48.6972 23.262 48.3437 23.4408C47.9901 23.6268 47.6005 23.7197 47.1748 23.7197ZM41.6767 20.3508C41.453 20.3508 41.2618 20.4259 41.1031 20.5761C40.9516 20.7263 40.8758 20.923 40.8758 21.1662C40.8758 21.3736 40.9407 21.5632 41.0706 21.7348C41.2077 21.8993 41.4025 21.9816 41.655 21.9816C41.8066 21.9816 41.9401 21.9494 42.0555 21.885C42.1782 21.8135 42.2828 21.7205 42.3694 21.6061C42.456 21.4916 42.5245 21.3629 42.575 21.2198C42.6327 21.0696 42.6724 20.9123 42.6941 20.7477C42.5281 20.6261 42.3622 20.5296 42.1962 20.4581C42.0302 20.3865 41.8571 20.3508 41.6767 20.3508Z" fill="url(#paint10_linear_717_758)"/>
<path d="M40.8758 21.1662C40.8758 20.923 40.9516 20.7263 41.1031 20.5761C41.2618 20.4259 41.453 20.3508 41.6767 20.3508L41.744 20.3523C41.9002 20.3602 42.051 20.3955 42.1962 20.4581C42.3622 20.5296 42.5281 20.6261 42.6941 20.7477C42.6724 20.9123 42.6327 21.0696 42.575 21.2198L42.5337 21.3243C42.4891 21.4262 42.4343 21.5202 42.3694 21.6061L42.3362 21.6479C42.2565 21.7434 42.1629 21.8224 42.0555 21.885C41.9401 21.9494 41.8066 21.9816 41.655 21.9816L41.6551 21.6776C41.7605 21.6776 41.8401 21.6555 41.9032 21.6209C41.989 21.5703 42.0625 21.5055 42.1243 21.4237C42.1909 21.3357 42.2452 21.2348 42.2859 21.1195L42.2871 21.1153L42.2886 21.1114C42.3164 21.0391 42.3388 20.9645 42.3569 20.8876C42.2608 20.8273 42.1667 20.7767 42.074 20.7368C41.9465 20.6818 41.8148 20.6549 41.6766 20.6549C41.531 20.6549 41.4166 20.7003 41.3166 20.7941C41.2329 20.8786 41.1823 20.993 41.1822 21.1661C41.1822 21.3028 41.2228 21.4268 41.3109 21.5458C41.3793 21.6253 41.4797 21.6776 41.6551 21.6776L41.655 21.9816L41.5632 21.9777C41.3548 21.9597 41.1906 21.8788 41.0706 21.7348C40.957 21.5847 40.893 21.4208 40.8788 21.2433L40.8758 21.1662ZM49.3286 10.2653C49.3286 9.8361 49.2492 9.44269 49.0905 9.08505C48.9317 8.72026 48.7045 8.40911 48.4086 8.15161C48.1561 7.92009 47.8594 7.73233 47.5186 7.5884L47.3696 7.52931C47.0161 7.39789 46.6266 7.32398 46.2012 7.30756L46.0167 7.304C45.49 7.304 44.9922 7.3791 44.5232 7.52931C44.0614 7.67952 43.6357 7.89053 43.246 8.16234C42.8564 8.42699 42.5065 8.74171 42.1962 9.10651L42.0821 9.24493C41.8209 9.57114 41.5955 9.92198 41.4061 10.2975C41.1969 10.7195 41.0345 11.1629 40.9191 11.6279L40.8785 11.8025C40.7901 12.21 40.7459 12.6204 40.7459 13.0334C40.7459 13.6486 40.8145 14.2136 40.9516 14.7286C41.0959 15.2436 41.2618 15.7336 41.4494 16.1985C41.6442 16.6635 41.8426 17.1213 42.0447 17.5719C42.2467 18.0154 42.4127 18.4731 42.5425 18.9452C42.4271 18.9095 42.308 18.8844 42.1854 18.8701C42.0988 18.854 42.0102 18.8441 41.9196 18.8401L41.8282 18.8379C41.4963 18.8379 41.1788 18.8987 40.8758 19.0203C40.5727 19.1348 40.3022 19.2993 40.0641 19.5139L39.9798 19.5938C39.788 19.7855 39.6321 20.0128 39.5121 20.2757C39.375 20.5689 39.3064 20.8944 39.3064 21.252L39.3088 21.3641C39.3199 21.6238 39.3696 21.8725 39.458 22.1104C39.5662 22.3822 39.7177 22.6218 39.9125 22.8292C40.1074 23.0366 40.3455 23.2012 40.6269 23.3228C40.9155 23.4515 41.2438 23.5159 41.6118 23.5159C41.8579 23.5159 42.0875 23.4829 42.3006 23.4172L42.391 23.3871C42.5994 23.312 42.7912 23.2124 42.9665 23.088L43.0404 23.0331C43.2352 22.8829 43.4048 22.7112 43.5491 22.5181C43.7006 22.3178 43.8305 22.1032 43.9387 21.8743C44.1624 22.1032 44.3969 22.3285 44.6422 22.5503C44.8875 22.7648 45.1401 22.958 45.3998 23.1296C45.6668 23.3085 45.9482 23.4515 46.244 23.5588C46.5399 23.6661 46.8501 23.7197 47.1748 23.7197C47.6005 23.7197 47.9901 23.6268 48.3437 23.4408C48.6972 23.262 48.9967 23.0188 49.242 22.7112C49.463 22.4421 49.6397 22.1401 49.7723 21.8052L49.8265 21.6597C49.9464 21.3155 50.0138 20.9576 50.0288 20.586L50.0321 20.4259C50.0321 20.1541 49.9275 19.9216 49.7182 19.7285C49.5221 19.5408 49.2465 19.4408 48.8919 19.4291L48.8199 19.428C48.6395 19.428 48.5493 19.4817 48.5493 19.589L48.5507 19.6232C48.5534 19.6594 48.5602 19.7017 48.571 19.7499C48.5854 19.8071 48.5926 19.8858 48.5926 19.986L48.5914 20.0593C48.5859 20.233 48.5611 20.4232 48.5169 20.6297L48.4963 20.7175C48.4442 20.9209 48.3644 21.1134 48.2571 21.2949C48.1345 21.4952 47.9721 21.6633 47.7701 21.7992L47.6918 21.8471C47.5033 21.9511 47.2731 22.0031 47.0016 22.0031L47.0017 21.6989C47.2672 21.6989 47.4591 21.6411 47.5982 21.5475C47.765 21.4353 47.8963 21.2987 47.9953 21.137C48.0999 20.959 48.1737 20.7693 48.2171 20.5667C48.2642 20.3465 48.2862 20.1534 48.2862 19.986C48.2862 19.8961 48.2792 19.8457 48.2736 19.8236L48.2718 19.8159C48.2548 19.7401 48.2428 19.6626 48.2428 19.5891C48.2428 19.4324 48.3188 19.2913 48.4595 19.2076C48.5751 19.1389 48.709 19.1242 48.8198 19.1242C49.259 19.1242 49.6435 19.2373 49.9268 19.506C50.1952 19.7538 50.3385 20.0657 50.3385 20.426C50.3385 20.8878 50.2647 21.3326 50.1162 21.7589C49.9684 22.1829 49.757 22.5638 49.482 22.8995C49.2093 23.2415 48.8755 23.5131 48.4828 23.7117C48.0834 23.9208 47.6454 24.0237 47.1747 24.0237C46.8153 24.0237 46.4692 23.9643 46.1387 23.8444C45.819 23.7285 45.5154 23.5739 45.2283 23.3816C44.9571 23.2023 44.6941 23.0011 44.4394 22.7784L44.4376 22.7766L44.4358 22.7751C44.2912 22.6443 44.1504 22.5118 44.013 22.3785C43.9456 22.4887 43.8732 22.5955 43.7951 22.6988C43.634 22.9145 43.4449 23.1061 43.2286 23.273C43.0079 23.4431 42.763 23.5765 42.4957 23.6728C42.2205 23.772 41.9248 23.8198 41.6117 23.8198C41.2087 23.8198 40.8376 23.7493 40.5044 23.6013C40.1874 23.4643 39.9138 23.2765 39.6883 23.0364C39.4666 22.8003 39.2948 22.528 39.173 22.222L39.1706 22.2155C39.0566 21.9088 39 21.5871 39 21.2522C39 20.856 39.0761 20.487 39.2331 20.1502C39.3863 19.8145 39.5943 19.5259 39.8583 19.2887C40.0916 19.0785 40.3531 18.9111 40.6415 18.7869L40.7669 18.7362C41.1052 18.6013 41.4598 18.534 41.8284 18.534C41.9207 18.534 42.0117 18.5396 42.1016 18.5503C42.0041 18.2601 41.8924 17.9756 41.7655 17.6971L41.7646 17.6954C41.5615 17.2424 41.3621 16.7824 41.1664 16.3152L41.1649 16.3116C40.9729 15.8357 40.8035 15.335 40.6564 14.8101L40.6552 14.8062C40.5105 14.2623 40.4395 13.6707 40.4395 13.0333C40.4395 12.5364 40.5002 12.0435 40.6214 11.5552C40.742 11.0694 40.9119 10.6051 41.1311 10.1632L41.132 10.1614C41.3592 9.71083 41.6362 9.29362 41.9621 8.91036C42.2488 8.57328 42.5682 8.27602 42.9201 8.01916L43.073 7.91139C43.487 7.62304 43.9391 7.39943 44.4278 7.24047L44.429 7.23987C44.9304 7.07927 45.4604 7 46.0169 7C46.5458 7.00001 47.034 7.07984 47.4773 7.24462C47.9121 7.40628 48.2913 7.63174 48.6106 7.92297C48.9407 8.21028 49.1946 8.55802 49.371 8.96261L49.4333 9.11431C49.5687 9.47195 49.635 9.85655 49.635 10.2653C49.635 10.7254 49.5652 11.1687 49.4249 11.5938C49.2869 12.0116 49.0989 12.4039 48.8608 12.7694C48.6241 13.1326 48.3489 13.4623 48.0354 13.758C47.7246 14.0511 47.3933 14.3041 47.0418 14.5162C46.6902 14.7284 46.3284 14.8929 45.9567 15.0081C45.5849 15.1233 45.222 15.1829 44.8695 15.1829C44.6832 15.1829 44.503 15.152 44.3308 15.0891L44.3281 15.0879L44.3257 15.087C44.1574 15.0222 44.0054 14.9256 43.8705 14.8009L43.8666 14.7973L43.8628 14.7934C43.7278 14.6597 43.6244 14.4948 43.547 14.3075L43.5446 14.3018L43.5425 14.2962C43.4697 14.0976 43.4375 13.8747 43.4375 13.6342C43.4375 13.5175 43.4532 13.3798 43.5237 13.2619C43.6091 13.1191 43.7538 13.0405 43.9169 13.0404C44.0041 13.0404 44.0762 13.0698 44.1246 13.0956C44.1693 13.1195 44.2095 13.1495 44.2455 13.1797C44.2359 13.1723 44.2526 13.1906 44.3392 13.1906L44.3392 13.4948L44.2946 13.4937C44.1935 13.4883 44.1146 13.4635 44.0578 13.4197C44 13.3696 43.9531 13.3446 43.9171 13.3446C43.8016 13.3446 43.7439 13.4411 43.7439 13.6343L43.7451 13.7134C43.7515 13.8949 43.78 14.0545 43.8305 14.1922C43.8954 14.3495 43.9784 14.4783 44.0794 14.5784C44.1876 14.6786 44.3067 14.7537 44.4366 14.8037C44.5565 14.8475 44.6819 14.8723 44.8129 14.8778L44.8695 14.8788C45.1473 14.8788 45.4362 14.8379 45.7361 14.7557L45.8652 14.7179C46.1683 14.624 46.4658 14.4945 46.7578 14.3294L46.8826 14.2565C47.2145 14.0563 47.5284 13.8166 47.8242 13.5377C48.0831 13.2936 48.3142 13.0248 48.5178 12.7314L48.6034 12.6042C48.8271 12.2609 49.0039 11.8925 49.1338 11.4991C49.2474 11.1549 49.3113 10.7969 49.3255 10.4253L49.3286 10.2653ZM47.2687 10.5764C47.2687 10.3926 47.241 10.2262 47.1882 10.075L47.187 10.0717C47.1358 9.91967 47.0577 9.79037 46.9527 9.68074L46.9473 9.6751L46.9422 9.66916C46.8477 9.55993 46.7244 9.47304 46.5648 9.41089L46.5564 9.40732C46.4016 9.34155 46.2029 9.30313 45.9519 9.30312C45.4875 9.30312 45.0736 9.40657 44.7037 9.6089L44.7001 9.61068C44.3197 9.81223 43.9911 10.0853 43.7134 10.4327L43.7116 10.4348C43.4342 10.7753 43.2166 11.1785 43.061 11.6478L43.0604 11.649C42.9054 12.1101 42.8273 12.5961 42.8273 13.1084C42.8273 13.4639 42.8679 13.8163 42.9491 14.1656L43.0161 14.431C43.087 14.6964 43.1698 14.9623 43.2645 15.2284C43.392 15.5795 43.5302 15.9377 43.679 16.3033L43.7981 16.5862C43.9136 16.8697 44.0206 17.1611 44.1195 17.4602L44.1716 17.6102C44.2901 17.9611 44.3914 18.3228 44.4756 18.6952L44.5107 18.8567C44.5799 19.1975 44.6224 19.551 44.6399 19.9168C44.8485 20.1196 45.049 20.3223 45.2412 20.5254L45.4049 20.6902C45.5663 20.8502 45.7252 21.0003 45.8819 21.1402L46.0336 21.2652C46.183 21.3825 46.3307 21.4814 46.4762 21.5636C46.6507 21.6556 46.8247 21.6989 47.0017 21.6989L47.0016 22.0031L46.9153 22.0003C46.7149 21.9877 46.52 21.9315 46.3306 21.8314C46.1141 21.7098 45.8977 21.556 45.6812 21.37C45.5189 21.2252 45.3545 21.0703 45.1882 20.9054L45.021 20.737C44.8046 20.5081 44.5773 20.2792 44.3392 20.0503C44.3247 19.5997 44.2706 19.1705 44.1768 18.7628C44.083 18.348 43.9676 17.9474 43.8305 17.5612C43.7006 17.1677 43.5563 16.7887 43.3976 16.4239C43.246 16.0519 43.1053 15.6871 42.9755 15.3295C42.8456 14.9647 42.7374 14.5999 42.6508 14.2351C42.5642 13.8631 42.5209 13.4876 42.5209 13.1085C42.5209 12.6329 42.5844 12.1763 42.7115 11.7389L42.7698 11.5528C42.915 11.1147 43.1128 10.7259 43.363 10.3864L43.4733 10.2438C43.7385 9.91208 44.0478 9.64053 44.4014 9.42929L44.5556 9.34255C44.9741 9.11366 45.4395 8.99922 45.9518 8.99922L46.0555 9.0012C46.293 9.01059 46.5002 9.05286 46.6769 9.12797C46.879 9.20665 47.0449 9.32109 47.1748 9.4713C47.3119 9.61436 47.4129 9.78245 47.4779 9.97558C47.5428 10.1616 47.5753 10.3618 47.5753 10.5764C47.5753 10.9054 47.4742 11.2452 47.2722 11.5957L47.1963 11.7232C47.0124 12.0173 46.7815 12.2895 46.5038 12.5399L46.3859 12.642C46.1064 12.8752 45.7994 13.07 45.4648 13.2265L45.3217 13.2895C44.9887 13.4264 44.6611 13.4948 44.3392 13.4948L44.3392 13.1906C44.6557 13.1906 44.9866 13.1142 45.3342 12.9517C45.6895 12.7855 46.0103 12.5731 46.2979 12.3146C46.5929 12.0487 46.8276 11.7592 47.005 11.4465L47.0062 11.4447C47.1877 11.1299 47.2687 10.8417 47.2687 10.5764Z" fill="url(#paint11_linear_717_758)"/>
<path d="M123.974 23.7197C123.649 23.7197 123.339 23.6661 123.043 23.5588C122.748 23.4515 122.466 23.3085 122.199 23.1296C121.939 22.958 121.687 22.7648 121.442 22.5503C121.196 22.3285 120.962 22.1032 120.738 21.8743C120.63 22.1032 120.5 22.3178 120.348 22.5181C120.204 22.7112 120.035 22.8829 119.84 23.0331C119.645 23.1833 119.428 23.3013 119.19 23.3871C118.952 23.473 118.693 23.5159 118.411 23.5159C118.043 23.5159 117.715 23.4515 117.426 23.3228C117.145 23.2012 116.907 23.0366 116.712 22.8292C116.517 22.6218 116.366 22.3822 116.257 22.1104C116.156 21.8385 116.106 21.5524 116.106 21.252C116.106 20.8944 116.174 20.5689 116.311 20.2757C116.449 19.9752 116.633 19.7213 116.863 19.5139C117.102 19.2993 117.372 19.1348 117.675 19.0203C117.978 18.8987 118.296 18.8379 118.628 18.8379C118.75 18.8379 118.869 18.8487 118.985 18.8701C119.107 18.8844 119.226 18.9095 119.342 18.9452C119.212 18.4731 119.046 18.0154 118.844 17.5719C118.642 17.1213 118.444 16.6635 118.249 16.1985C118.061 15.7336 117.895 15.2436 117.751 14.7286C117.614 14.2136 117.545 13.6486 117.545 13.0334C117.545 12.5613 117.603 12.0928 117.718 11.6279C117.834 11.1629 117.996 10.7195 118.205 10.2975C118.422 9.86829 118.685 9.4713 118.996 9.10651C119.306 8.74171 119.656 8.42699 120.045 8.16234C120.435 7.89053 120.861 7.67952 121.323 7.52931C121.792 7.3791 122.289 7.304 122.816 7.304C123.314 7.304 123.765 7.3791 124.169 7.52931C124.573 7.67952 124.919 7.88695 125.208 8.15161C125.504 8.40911 125.731 8.72026 125.89 9.08505C126.049 9.44269 126.128 9.8361 126.128 10.2653C126.128 10.6944 126.063 11.1057 125.933 11.4991C125.803 11.8925 125.626 12.2609 125.403 12.6042C125.179 12.9476 124.919 13.2587 124.624 13.5377C124.328 13.8166 124.014 14.0563 123.682 14.2565C123.35 14.4568 123.011 14.6106 122.665 14.7179C122.318 14.8252 121.986 14.8788 121.669 14.8788C121.517 14.8788 121.373 14.8538 121.236 14.8037C121.106 14.7537 120.987 14.6786 120.879 14.5784C120.778 14.4783 120.695 14.3495 120.63 14.1922C120.572 14.0348 120.543 13.8488 120.543 13.6343C120.543 13.4411 120.601 13.3446 120.716 13.3446C120.753 13.3446 120.799 13.3696 120.857 13.4197C120.922 13.4697 121.016 13.4948 121.139 13.4948C121.507 13.4948 121.882 13.4054 122.264 13.2265C122.647 13.0477 122.993 12.8188 123.303 12.5399C123.621 12.2538 123.877 11.939 124.072 11.5957C124.274 11.2452 124.375 10.9054 124.375 10.5764C124.375 10.3618 124.342 10.1616 124.277 9.97558C124.212 9.78245 124.111 9.61436 123.974 9.4713C123.844 9.32109 123.678 9.20665 123.476 9.12797C123.274 9.04213 123.033 8.99922 122.751 8.99922C122.239 8.99922 121.773 9.11366 121.355 9.34255C120.937 9.56429 120.576 9.86471 120.273 10.2438C119.97 10.6158 119.735 11.0521 119.569 11.5528C119.403 12.0463 119.32 12.5649 119.32 13.1085C119.32 13.4876 119.364 13.8631 119.45 14.2351C119.537 14.5999 119.645 14.9647 119.775 15.3295C119.905 15.6871 120.045 16.0519 120.197 16.4239C120.356 16.7887 120.5 17.1677 120.63 17.5612C120.767 17.9474 120.882 18.348 120.976 18.7628C121.07 19.1705 121.124 19.5997 121.139 20.0503C121.377 20.2792 121.604 20.5081 121.82 20.737C122.044 20.9659 122.264 21.1769 122.481 21.37C122.697 21.556 122.914 21.7098 123.13 21.8314C123.346 21.9458 123.57 22.0031 123.801 22.0031C124.111 22.0031 124.367 21.9351 124.569 21.7992C124.771 21.6633 124.934 21.4952 125.056 21.2949C125.179 21.0875 125.266 20.8658 125.316 20.6297C125.367 20.3937 125.392 20.1791 125.392 19.986C125.392 19.8858 125.385 19.8071 125.37 19.7499C125.356 19.6855 125.349 19.6319 125.349 19.589C125.349 19.4817 125.439 19.428 125.619 19.428C126.009 19.428 126.308 19.5282 126.518 19.7285C126.727 19.9216 126.831 20.1541 126.831 20.4259C126.831 20.855 126.763 21.2663 126.626 21.6597C126.489 22.0531 126.294 22.4036 126.041 22.7112C125.796 23.0188 125.497 23.262 125.143 23.4408C124.79 23.6268 124.4 23.7197 123.974 23.7197ZM118.476 20.3508C118.252 20.3508 118.061 20.4259 117.902 20.5761C117.751 20.7263 117.675 20.923 117.675 21.1662C117.675 21.3736 117.74 21.5632 117.87 21.7348C118.007 21.8993 118.202 21.9816 118.454 21.9816C118.606 21.9816 118.739 21.9494 118.855 21.885C118.978 21.8135 119.082 21.7205 119.169 21.6061C119.255 21.4916 119.324 21.3629 119.374 21.2198C119.432 21.0696 119.472 20.9123 119.493 20.7477C119.327 20.6261 119.162 20.5296 118.996 20.4581C118.83 20.3865 118.656 20.3508 118.476 20.3508Z" fill="url(#paint12_linear_717_758)"/>
<path d="M117.675 21.1662C117.675 20.923 117.751 20.7263 117.902 20.5761C118.061 20.4259 118.252 20.3508 118.476 20.3508L118.543 20.3523C118.7 20.3602 118.85 20.3955 118.996 20.4581C119.162 20.5296 119.327 20.6261 119.493 20.7477C119.472 20.9123 119.432 21.0696 119.374 21.2198L119.333 21.3243C119.288 21.4262 119.234 21.5202 119.169 21.6061L119.136 21.6479C119.056 21.7434 118.962 21.8224 118.855 21.885C118.739 21.9494 118.606 21.9816 118.454 21.9816L118.454 21.6776C118.56 21.6776 118.64 21.6555 118.703 21.6209C118.788 21.5703 118.862 21.5055 118.924 21.4237C118.99 21.3357 119.045 21.2348 119.085 21.1195L119.086 21.1153L119.088 21.1114C119.116 21.0391 119.138 20.9645 119.156 20.8876C119.06 20.8273 118.966 20.7767 118.873 20.7368C118.746 20.6818 118.614 20.6549 118.476 20.6549C118.33 20.6549 118.216 20.7003 118.116 20.7941C118.032 20.8786 117.982 20.993 117.982 21.1661C117.982 21.3028 118.022 21.4268 118.11 21.5458C118.179 21.6253 118.279 21.6776 118.454 21.6776L118.454 21.9816L118.363 21.9777C118.154 21.9597 117.99 21.8788 117.87 21.7348C117.756 21.5847 117.692 21.4208 117.678 21.2433L117.675 21.1662ZM126.128 10.2653C126.128 9.8361 126.049 9.44269 125.89 9.08505C125.731 8.72026 125.504 8.40911 125.208 8.15161C124.956 7.92009 124.659 7.73233 124.318 7.5884L124.169 7.52931C123.815 7.39789 123.426 7.32398 123.001 7.30756L122.816 7.304C122.289 7.304 121.792 7.3791 121.323 7.52931C120.861 7.67952 120.435 7.89053 120.045 8.16234C119.656 8.42699 119.306 8.74171 118.996 9.10651L118.882 9.24493C118.62 9.57114 118.395 9.92198 118.205 10.2975C117.996 10.7195 117.834 11.1629 117.718 11.6279L117.678 11.8025C117.589 12.21 117.545 12.6204 117.545 13.0334C117.545 13.6486 117.614 14.2136 117.751 14.7286C117.895 15.2436 118.061 15.7336 118.249 16.1985C118.444 16.6635 118.642 17.1213 118.844 17.5719C119.046 18.0154 119.212 18.4731 119.342 18.9452C119.226 18.9095 119.107 18.8844 118.985 18.8701C118.898 18.854 118.81 18.8441 118.719 18.8401L118.628 18.8379C118.296 18.8379 117.978 18.8987 117.675 19.0203C117.372 19.1348 117.102 19.2993 116.863 19.5139L116.779 19.5938C116.587 19.7855 116.431 20.0128 116.311 20.2757C116.174 20.5689 116.106 20.8944 116.106 21.252L116.108 21.3641C116.119 21.6238 116.169 21.8725 116.257 22.1104C116.366 22.3822 116.517 22.6218 116.712 22.8292C116.907 23.0366 117.145 23.2012 117.426 23.3228C117.715 23.4515 118.043 23.5159 118.411 23.5159C118.657 23.5159 118.887 23.4829 119.1 23.4172L119.19 23.3871C119.399 23.312 119.591 23.2124 119.766 23.088L119.84 23.0331C120.035 22.8829 120.204 22.7112 120.348 22.5181C120.5 22.3178 120.63 22.1032 120.738 21.8743C120.962 22.1032 121.196 22.3285 121.442 22.5503C121.687 22.7648 121.939 22.958 122.199 23.1296C122.466 23.3085 122.748 23.4515 123.043 23.5588C123.339 23.6661 123.649 23.7197 123.974 23.7197C124.4 23.7197 124.79 23.6268 125.143 23.4408C125.497 23.262 125.796 23.0188 126.041 22.7112C126.262 22.4421 126.439 22.1401 126.572 21.8052L126.626 21.6597C126.746 21.3155 126.813 20.9576 126.828 20.586L126.831 20.4259C126.831 20.1541 126.727 19.9216 126.518 19.7285C126.321 19.5408 126.046 19.4408 125.691 19.4291L125.619 19.428C125.439 19.428 125.349 19.4817 125.349 19.589L125.35 19.6232C125.353 19.6594 125.36 19.7017 125.37 19.7499C125.385 19.8071 125.392 19.8858 125.392 19.986L125.391 20.0593C125.385 20.233 125.36 20.4232 125.316 20.6297L125.296 20.7175C125.244 20.9209 125.164 21.1134 125.056 21.2949C124.934 21.4952 124.771 21.6633 124.569 21.7992L124.491 21.8471C124.303 21.9511 124.072 22.0031 123.801 22.0031L123.801 21.6989C124.067 21.6989 124.258 21.6411 124.398 21.5475C124.564 21.4353 124.696 21.2987 124.795 21.137C124.899 20.959 124.973 20.7693 125.016 20.5667C125.064 20.3465 125.086 20.1534 125.086 19.986C125.086 19.8961 125.079 19.8457 125.073 19.8236L125.071 19.8159C125.054 19.7401 125.042 19.6626 125.042 19.5891C125.042 19.4324 125.118 19.2913 125.259 19.2076C125.374 19.1389 125.508 19.1242 125.619 19.1242C126.058 19.1242 126.443 19.2373 126.726 19.506C126.995 19.7538 127.138 20.0657 127.138 20.426C127.138 20.8878 127.064 21.3326 126.916 21.7589C126.768 22.1829 126.556 22.5638 126.281 22.8995C126.009 23.2415 125.675 23.5131 125.282 23.7117C124.883 23.9208 124.445 24.0237 123.974 24.0237C123.615 24.0237 123.269 23.9643 122.938 23.8444C122.618 23.7285 122.315 23.5739 122.028 23.3816C121.757 23.2023 121.493 23.0011 121.239 22.7784L121.237 22.7766L121.235 22.7751C121.091 22.6443 120.95 22.5118 120.812 22.3785C120.745 22.4887 120.673 22.5955 120.594 22.6988C120.433 22.9145 120.244 23.1061 120.028 23.273C119.807 23.4431 119.562 23.5765 119.295 23.6728C119.02 23.772 118.724 23.8198 118.411 23.8198C118.008 23.8198 117.637 23.7493 117.304 23.6013C116.987 23.4643 116.713 23.2765 116.488 23.0364C116.266 22.8003 116.094 22.528 115.972 22.222L115.97 22.2155C115.856 21.9088 115.799 21.5871 115.799 21.2522C115.799 20.856 115.876 20.487 116.032 20.1502C116.186 19.8145 116.394 19.5259 116.658 19.2887C116.891 19.0785 117.152 18.9111 117.441 18.7869L117.566 18.7362C117.905 18.6013 118.259 18.534 118.628 18.534C118.72 18.534 118.811 18.5396 118.901 18.5503C118.803 18.2601 118.692 17.9756 118.565 17.6971L118.564 17.6954C118.361 17.2424 118.161 16.7824 117.966 16.3152L117.964 16.3116C117.772 15.8357 117.603 15.335 117.456 14.8101L117.455 14.8062C117.31 14.2623 117.239 13.6707 117.239 13.0333C117.239 12.5364 117.3 12.0435 117.421 11.5552C117.541 11.0694 117.711 10.6051 117.93 10.1632L117.931 10.1614C118.159 9.71083 118.436 9.29362 118.761 8.91036C119.048 8.57328 119.368 8.27602 119.719 8.01916L119.872 7.91139C120.286 7.62304 120.738 7.39943 121.227 7.24047L121.228 7.23987C121.73 7.07927 122.26 7 122.816 7C123.345 7.00001 123.833 7.07984 124.277 7.24462C124.711 7.40628 125.091 7.63174 125.41 7.92297C125.74 8.21028 125.994 8.55802 126.17 8.96261L126.233 9.11431C126.368 9.47195 126.434 9.85655 126.434 10.2653C126.434 10.7254 126.365 11.1687 126.224 11.5938C126.086 12.0116 125.898 12.4039 125.66 12.7694C125.423 13.1326 125.148 13.4623 124.835 13.758C124.524 14.0511 124.193 14.3041 123.841 14.5162C123.49 14.7284 123.128 14.8929 122.756 15.0081C122.384 15.1233 122.021 15.1829 121.669 15.1829C121.483 15.1829 121.302 15.152 121.13 15.0891L121.127 15.0879L121.125 15.087C120.957 15.0222 120.805 14.9256 120.67 14.8009L120.666 14.7973L120.662 14.7934C120.527 14.6597 120.424 14.4948 120.346 14.3075L120.344 14.3018L120.342 14.2962C120.269 14.0976 120.237 13.8747 120.237 13.6342C120.237 13.5175 120.253 13.3798 120.323 13.2619C120.408 13.1191 120.553 13.0405 120.716 13.0404C120.803 13.0404 120.876 13.0698 120.924 13.0956C120.969 13.1195 121.009 13.1495 121.045 13.1797C121.035 13.1723 121.052 13.1906 121.139 13.1906L121.139 13.4948L121.094 13.4937C120.993 13.4883 120.914 13.4635 120.857 13.4197C120.799 13.3696 120.753 13.3446 120.716 13.3446C120.601 13.3446 120.543 13.4411 120.543 13.6343L120.545 13.7134C120.551 13.8949 120.579 14.0545 120.63 14.1922C120.695 14.3495 120.778 14.4783 120.879 14.5784C120.987 14.6786 121.106 14.7537 121.236 14.8037C121.356 14.8475 121.481 14.8723 121.612 14.8778L121.669 14.8788C121.947 14.8788 122.236 14.8379 122.536 14.7557L122.665 14.7179C122.968 14.624 123.265 14.4945 123.557 14.3294L123.682 14.2565C124.014 14.0563 124.328 13.8166 124.624 13.5377C124.882 13.2936 125.114 13.0248 125.317 12.7314L125.403 12.6042C125.626 12.2609 125.803 11.8925 125.933 11.4991C126.047 11.1549 126.111 10.7969 126.125 10.4253L126.128 10.2653ZM124.068 10.5764C124.068 10.3926 124.04 10.2262 123.988 10.075L123.986 10.0717C123.935 9.91967 123.857 9.79037 123.752 9.68074L123.747 9.6751L123.742 9.66916C123.647 9.55993 123.524 9.47304 123.364 9.41089L123.356 9.40732C123.201 9.34155 123.002 9.30313 122.751 9.30312C122.287 9.30312 121.873 9.40657 121.503 9.6089L121.499 9.61068C121.119 9.81223 120.79 10.0853 120.513 10.4327L120.511 10.4348C120.234 10.7753 120.016 11.1785 119.86 11.6478L119.86 11.649C119.705 12.1101 119.627 12.5961 119.627 13.1084C119.627 13.4639 119.667 13.8163 119.748 14.1656L119.815 14.431C119.886 14.6964 119.969 14.9623 120.064 15.2284C120.191 15.5795 120.33 15.9377 120.478 16.3033L120.597 16.5862C120.713 16.8697 120.82 17.1611 120.919 17.4602L120.971 17.6102C121.09 17.9611 121.191 18.3228 121.275 18.6952L121.31 18.8567C121.379 19.1975 121.422 19.551 121.439 19.9168C121.648 20.1196 121.848 20.3223 122.041 20.5254L122.204 20.6902C122.366 20.8502 122.525 21.0003 122.681 21.1402L122.833 21.2652C122.982 21.3825 123.13 21.4814 123.276 21.5636C123.45 21.6556 123.624 21.6989 123.801 21.6989L123.801 22.0031L123.715 22.0003C123.514 21.9877 123.319 21.9315 123.13 21.8314C122.914 21.7098 122.697 21.556 122.481 21.37C122.318 21.2252 122.154 21.0703 121.988 20.9054L121.82 20.737C121.604 20.5081 121.377 20.2792 121.139 20.0503C121.124 19.5997 121.07 19.1705 120.976 18.7628C120.882 18.348 120.767 17.9474 120.63 17.5612C120.5 17.1677 120.356 16.7887 120.197 16.4239C120.045 16.0519 119.905 15.6871 119.775 15.3295C119.645 14.9647 119.537 14.5999 119.45 14.2351C119.364 13.8631 119.32 13.4876 119.32 13.1085C119.32 12.6329 119.384 12.1763 119.511 11.7389L119.569 11.5528C119.714 11.1147 119.912 10.7259 120.162 10.3864L120.273 10.2438C120.538 9.91208 120.847 9.64053 121.201 9.42929L121.355 9.34255C121.773 9.11366 122.239 8.99922 122.751 8.99922L122.855 9.0012C123.092 9.01059 123.3 9.05286 123.476 9.12797C123.678 9.20665 123.844 9.32109 123.974 9.4713C124.111 9.61436 124.212 9.78245 124.277 9.97558C124.342 10.1616 124.375 10.3618 124.375 10.5764C124.375 10.9054 124.274 11.2452 124.072 11.5957L123.996 11.7232C123.812 12.0173 123.581 12.2895 123.303 12.5399L123.185 12.642C122.906 12.8752 122.599 13.07 122.264 13.2265L122.121 13.2895C121.788 13.4264 121.461 13.4948 121.139 13.4948L121.139 13.1906C121.455 13.1906 121.786 13.1142 122.134 12.9517C122.489 12.7855 122.81 12.5731 123.097 12.3146C123.392 12.0487 123.627 11.7592 123.804 11.4465L123.806 11.4447C123.987 11.1299 124.068 10.8417 124.068 10.5764Z" fill="url(#paint13_linear_717_758)"/>
<path d="M156.215 24.0116C155.208 24.0116 154.319 23.7911 153.547 23.3501C152.789 22.9091 152.194 22.2995 151.762 21.5212C151.331 20.743 151.115 19.8351 151.115 18.7974C151.115 17.7728 151.324 16.8713 151.743 16.0931C152.174 15.3019 152.763 14.6923 153.508 14.2643C154.266 13.8233 155.136 13.6028 156.116 13.6028C157.097 13.6028 157.947 13.8298 158.666 14.2837C159.398 14.7247 159.967 15.3473 160.372 16.1515C160.791 16.9556 161 17.896 161 18.9725V19.3422L160.706 19.634H152.174V17.7663H159.98L158.784 18.2138C158.771 17.669 158.64 17.2021 158.392 16.813C158.156 16.4109 157.842 16.1061 157.45 15.8985C157.071 15.678 156.639 15.5678 156.156 15.5678C155.633 15.5678 155.155 15.691 154.724 15.9375C154.292 16.1709 153.959 16.5017 153.724 16.9297C153.488 17.3448 153.371 17.8311 153.371 18.3889V19.1671C153.371 19.6989 153.495 20.1853 153.743 20.6263C154.005 21.0543 154.351 21.398 154.783 21.6574C155.214 21.9168 155.692 22.0465 156.215 22.0465C156.711 22.0465 157.162 21.9168 157.568 21.6574C157.986 21.3851 158.313 21.0219 158.548 20.5679H158.784L160.608 21.3461C160.215 22.1892 159.634 22.8442 158.862 23.3112C158.104 23.7781 157.221 24.0116 156.215 24.0116Z" fill="#B086F4"/>
<path d="M148.177 23.7198C147.209 23.7198 146.438 23.4214 145.863 22.8248C145.287 22.2152 145 21.398 145 20.3734V11.3459H147.255V20.1399C147.255 20.6587 147.386 21.0478 147.647 21.3072C147.922 21.5667 148.314 21.6964 148.824 21.6964H149.844L149.942 21.9104V23.7198H148.177ZM143.313 15.8986V13.8946H149.942V15.8986H143.313Z" fill="url(#paint14_linear_717_758)"/>
<path d="M140.057 23.7197V13.8946H142.312V23.7197H140.057ZM141.194 12.416C140.802 12.416 140.469 12.2798 140.194 12.0074C139.92 11.735 139.782 11.3978 139.782 10.9957C139.782 10.6196 139.92 10.2953 140.194 10.0229C140.469 9.73758 140.809 9.59491 141.214 9.59491C141.593 9.59491 141.92 9.73758 142.195 10.0229C142.482 10.2953 142.626 10.6261 142.626 11.0152C142.626 11.4043 142.482 11.735 142.195 12.0074C141.92 12.2798 141.587 12.416 141.194 12.416Z" fill="url(#paint15_linear_717_758)"/>
<path d="M133.327 24.0116C132.32 24.0116 131.431 23.7911 130.659 23.3501C129.901 22.9091 129.306 22.2995 128.875 21.5212C128.443 20.743 128.227 19.8351 128.227 18.7974C128.227 17.7728 128.437 16.8713 128.855 16.0931C129.287 15.3019 129.875 14.6923 130.62 14.2643C131.379 13.8233 132.248 13.6028 133.229 13.6028C134.209 13.6028 135.059 13.8298 135.778 14.2837C136.511 14.7247 137.079 15.3473 137.485 16.1515C137.903 16.9556 138.112 17.896 138.112 18.9725V19.3422L137.818 19.634H129.287V17.7663H137.092L135.896 18.2138C135.883 17.669 135.752 17.2021 135.504 16.813C135.268 16.4109 134.955 16.1061 134.562 15.8985C134.183 15.678 133.752 15.5678 133.268 15.5678C132.745 15.5678 132.268 15.691 131.836 15.9375C131.405 16.1709 131.071 16.5017 130.836 16.9297C130.601 17.3448 130.483 17.8311 130.483 18.3889V19.1671C130.483 19.6989 130.607 20.1853 130.856 20.6263C131.117 21.0543 131.464 21.398 131.895 21.6574C132.327 21.9168 132.804 22.0465 133.327 22.0465C133.824 22.0465 134.275 21.9168 134.68 21.6574C135.098 21.3851 135.425 21.0219 135.661 20.5679H135.896L137.72 21.3461C137.328 22.1892 136.746 22.8442 135.974 23.3112C135.216 23.7781 134.334 24.0116 133.327 24.0116Z" fill="url(#paint16_linear_717_758)"/>
<path d="M93.2161 24.3156C92.327 24.3156 91.5229 24.0951 90.8038 23.6541C90.0847 23.2001 89.5159 22.584 89.0975 21.8058C88.6791 21.0276 88.4699 20.1326 88.4699 19.1209C88.4699 18.0962 88.6791 17.1948 89.0975 16.4166C89.5159 15.6383 90.0847 15.0287 90.8038 14.5877C91.5229 14.1338 92.327 13.9068 93.2161 13.9068C93.9483 13.9068 94.6021 14.0559 95.1774 14.3543C95.7658 14.6526 96.2496 15.0417 96.6287 15.5216C97.021 15.9885 97.2956 16.5009 97.4525 17.0586V21.1832C97.2956 21.728 97.021 22.2403 96.6287 22.7202C96.2496 23.2001 95.7658 23.5892 95.1774 23.8876C94.6021 24.1729 93.9483 24.3156 93.2161 24.3156ZM93.5496 22.2727C94.1249 22.2727 94.6283 22.143 95.0597 21.8836C95.4912 21.6112 95.8312 21.2351 96.0796 20.7552C96.328 20.2753 96.4522 19.724 96.4522 19.1014C96.4522 18.4789 96.328 17.9341 96.0796 17.4672C95.8312 16.9873 95.4912 16.6111 95.0597 16.3387C94.6283 16.0664 94.1249 15.9302 93.5496 15.9302C93.0004 15.9302 92.5101 16.0664 92.0786 16.3387C91.6471 16.6111 91.3137 16.9873 91.0784 17.4672C90.843 17.9341 90.7253 18.4789 90.7253 19.1014C90.7253 19.724 90.843 20.2753 91.0784 20.7552C91.3137 21.2351 91.6471 21.6112 92.0786 21.8836C92.5101 22.143 93.0004 22.2727 93.5496 22.2727ZM96.5307 24.0237V20.9887L97.0014 19.1014L96.3934 17.2337V10.0156L98.59 9.74325L98.6488 9.8989V24.0237H96.5307Z" fill="#B086F4"/>
<path d="M105.808 24.3156C104.801 24.3156 103.912 24.0951 103.141 23.6541C102.382 23.2131 101.787 22.6035 101.356 21.8252C100.924 21.047 100.709 20.1391 100.709 19.1014C100.709 18.0768 100.918 17.1753 101.336 16.3971C101.768 15.6059 102.356 14.9963 103.101 14.5683C103.86 14.1273 104.729 13.9068 105.71 13.9068C106.69 13.9068 107.54 14.1338 108.259 14.5877C108.992 15.0287 109.56 15.6513 109.966 16.4555C110.384 17.2596 110.593 18.2 110.593 19.2765V19.6462L110.299 19.938H101.768V18.0703H109.574L108.377 18.5178C108.364 17.973 108.233 17.5061 107.985 17.117C107.75 16.7149 107.436 16.4101 107.043 16.2025C106.664 15.982 106.233 15.8718 105.749 15.8718C105.226 15.8718 104.749 15.995 104.317 16.2415C103.886 16.4749 103.552 16.8057 103.317 17.2337C103.082 17.6488 102.964 18.1351 102.964 18.6929V19.4711C102.964 20.0029 103.088 20.4893 103.337 20.9303C103.598 21.3583 103.945 21.702 104.376 21.9614C104.808 22.2208 105.285 22.3505 105.808 22.3505C106.305 22.3505 106.756 22.2208 107.161 21.9614C107.58 21.6891 107.906 21.3259 108.142 20.8719H108.377L110.201 21.6501C109.809 22.4932 109.227 23.1482 108.456 23.6152C107.697 24.0821 106.815 24.3156 105.808 24.3156Z" fill="#B086F4"/>
<defs>
<linearGradient id="paint0_linear_717_758" x1="16.3538" y1="0" x2="16.3538" y2="24.9305" gradientUnits="userSpaceOnUse">
<stop stop-color="#A87DED"/>
<stop offset="1" stop-color="#BE99FB"/>
</linearGradient>
<linearGradient id="paint1_linear_717_758" x1="16.3538" y1="0" x2="16.3538" y2="24.9305" gradientUnits="userSpaceOnUse">
<stop stop-color="#A87DED"/>
<stop offset="1" stop-color="#BE99FB"/>
</linearGradient>
<linearGradient id="paint2_linear_717_758" x1="16.3538" y1="0" x2="16.3538" y2="24.9305" gradientUnits="userSpaceOnUse">
<stop stop-color="#A87DED"/>
<stop offset="1" stop-color="#BE99FB"/>
</linearGradient>
<linearGradient id="paint3_linear_717_758" x1="16.3538" y1="0" x2="16.3538" y2="24.9305" gradientUnits="userSpaceOnUse">
<stop stop-color="#A87DED"/>
<stop offset="1" stop-color="#BE99FB"/>
</linearGradient>
<linearGradient id="paint4_linear_717_758" x1="17.9654" y1="25.5117" x2="17.9654" y2="33.9998" gradientUnits="userSpaceOnUse">
<stop stop-color="#A87DED"/>
<stop offset="1" stop-color="#BE99FB"/>
</linearGradient>
<linearGradient id="paint5_linear_717_758" x1="14.7611" y1="25.5117" x2="14.7611" y2="33.9998" gradientUnits="userSpaceOnUse">
<stop stop-color="#A87DED"/>
<stop offset="1" stop-color="#BE99FB"/>
</linearGradient>
<linearGradient id="paint6_linear_717_758" x1="16.3546" y1="22.4355" x2="16.3546" y2="29.765" gradientUnits="userSpaceOnUse">
<stop stop-color="#A87DED"/>
<stop offset="1" stop-color="#BE99FB"/>
</linearGradient>
<linearGradient id="paint7_linear_717_758" x1="44.6693" y1="7.304" x2="44.6693" y2="23.7197" gradientUnits="userSpaceOnUse">
<stop stop-color="#B68EF6"/>
<stop offset="1" stop-color="#A577F0"/>
</linearGradient>
<linearGradient id="paint8_linear_717_758" x1="44.6693" y1="7.304" x2="44.6693" y2="23.7197" gradientUnits="userSpaceOnUse">
<stop stop-color="#B68EF6"/>
<stop offset="1" stop-color="#A577F0"/>
</linearGradient>
<linearGradient id="paint9_linear_717_758" x1="44.6693" y1="7.304" x2="44.6693" y2="23.7197" gradientUnits="userSpaceOnUse">
<stop stop-color="#B68EF6"/>
<stop offset="1" stop-color="#A577F0"/>
</linearGradient>
<linearGradient id="paint10_linear_717_758" x1="44.6693" y1="7.304" x2="44.6693" y2="23.7197" gradientUnits="userSpaceOnUse">
<stop stop-color="#B68EF6"/>
<stop offset="1" stop-color="#A577F0"/>
</linearGradient>
<linearGradient id="paint11_linear_717_758" x1="44.6693" y1="7.304" x2="44.6693" y2="23.7197" gradientUnits="userSpaceOnUse">
<stop stop-color="#B790F5"/>
<stop offset="1" stop-color="#A97BF2"/>
</linearGradient>
<linearGradient id="paint12_linear_717_758" x1="144.605" y1="4.26404" x2="144.605" y2="31.9276" gradientUnits="userSpaceOnUse">
<stop stop-color="#B68EF6"/>
<stop offset="1" stop-color="#A577F0"/>
</linearGradient>
<linearGradient id="paint13_linear_717_758" x1="144.605" y1="4.26404" x2="144.605" y2="31.9276" gradientUnits="userSpaceOnUse">
<stop stop-color="#B790F5"/>
<stop offset="1" stop-color="#A97BF2"/>
</linearGradient>
<linearGradient id="paint14_linear_717_758" x1="144.605" y1="4.26404" x2="144.605" y2="31.9276" gradientUnits="userSpaceOnUse">
<stop stop-color="#B68EF6"/>
<stop offset="1" stop-color="#A577F0"/>
</linearGradient>
<linearGradient id="paint15_linear_717_758" x1="144.605" y1="4.26404" x2="144.605" y2="31.9276" gradientUnits="userSpaceOnUse">
<stop stop-color="#B68EF6"/>
<stop offset="1" stop-color="#A577F0"/>
</linearGradient>
<linearGradient id="paint16_linear_717_758" x1="144.605" y1="4.26404" x2="144.605" y2="31.9276" gradientUnits="userSpaceOnUse">
<stop stop-color="#B68EF6"/>
<stop offset="1" stop-color="#A577F0"/>
</linearGradient>
</defs>
</svg>
